<svg xmlns="http://www.w3.org/2000/svg" width="25.281" height="17.065" viewBox="0 0 25.281 17.065">
  <path id="Icon_zocial-email" data-name="Icon zocial-email" d="M.072,19.622V5.579q0-.024.073-.463l8.264,7.07L.17,20.109a2.066,2.066,0,0,1-.1-.488Zm1.1-15.481a1.051,1.051,0,0,1,.414-.073H23.842a1.38,1.38,0,0,1,.439.073l-8.289,7.094-1.1.878-2.17,1.78-2.17-1.78-1.1-.878ZM1.193,21.06l8.313-7.972L12.725,15.7l3.218-2.609,8.313,7.972a1.171,1.171,0,0,1-.414.073H1.584a1.1,1.1,0,0,1-.39-.073ZM17.04,12.186l8.24-7.07a1.455,1.455,0,0,1,.073.463V19.622a1.869,1.869,0,0,1-.073.488Z" transform="translate(-0.072 -4.068)" fill="#ddd"/>
</svg>
