<svg xmlns="http://www.w3.org/2000/svg" viewBox="0 0 12 12"><path d="M6,5.161A3.077,3.077,0,1,0,9.074,8.238,3.072,3.072,0,0,0,6,5.161Zm0,5.077a2,2,0,1,1,2-2A2,2,0,0,1,6,10.238Zm3.92-5.2A.718.718,0,1,1,9.2,4.318.716.716,0,0,1,9.918,5.035Zm2.038.728a3.551,3.551,0,0,0-.969-2.514A3.575,3.575,0,0,0,8.472,2.28c-.991-.056-3.96-.056-4.951,0a3.57,3.57,0,0,0-2.514.967A3.563,3.563,0,0,0,.037,5.761c-.056.991-.056,3.96,0,4.951a3.551,3.551,0,0,0,.969,2.514,3.579,3.579,0,0,0,2.514.969c.991.056,3.96.056,4.951,0a3.551,3.551,0,0,0,2.514-.969,3.575,3.575,0,0,0,.969-2.514c.056-.991.056-3.958,0-4.948Zm-1.28,6.011a2.025,2.025,0,0,1-1.141,1.141A13.225,13.225,0,0,1,6,13.157a13.328,13.328,0,0,1-3.537-.241A2.025,2.025,0,0,1,1.32,11.775a13.225,13.225,0,0,1-.241-3.537A13.328,13.328,0,0,1,1.32,4.7,2.025,2.025,0,0,1,2.46,3.56,13.225,13.225,0,0,1,6,3.319a13.328,13.328,0,0,1,3.537.241A2.025,2.025,0,0,1,10.675,4.7a13.225,13.225,0,0,1,.241,3.537A13.217,13.217,0,0,1,10.675,11.775Z" transform="translate(0.005 -2.237)"/></svg>