<?xml version="1.0" encoding="utf-8"?>
<!-- Generator: Adobe Illustrator 16.0.0, SVG Export Plug-In . SVG Version: 6.00 Build 0)  -->
<!DOCTYPE svg PUBLIC "-//W3C//DTD SVG 1.1//EN" "http://www.w3.org/Graphics/SVG/1.1/DTD/svg11.dtd">
<svg version="1.1" id="Layer_1" xmlns="http://www.w3.org/2000/svg" xmlns:xlink="http://www.w3.org/1999/xlink" x="0px" y="0px" viewBox="125 85 294 182" xml:space="preserve">
<g>
	<linearGradient id="SVGID_1_" gradientUnits="userSpaceOnUse" x1="228.5854" y1="142.625" x2="319.4141" y2="142.625">
		<stop  offset="0" style="stop-color:#B07EB7"/>
		<stop  offset="0.5" style="stop-color:#8C3D96"/>
		<stop  offset="1" style="stop-color:#762A90"/>
	</linearGradient>
	<path fill="url(#SVGID_1_)" d="M319.391,107.62c-9.01,3.63-16.899,9.42-25.18,14.36c-5.84-10.52-12.7-20.43-19.89-30.05
		c-8.47,8.89-14.96,19.41-21.59,29.68c-7.62-5.27-15.54-10.19-23.99-14.02c-0.26,15.02-0.12,30.06-0.1,45.09
		c0.27,17.53,11.86,34.04,28.05,40.639c-1.94-2.339-4.16-4.47-5.69-7.1c-5.64-9.62-6.89-21.33-4.96-32.19
		c1.09-6.69,3.92-12.89,6.36-19.14c-1.28-1.42-2.96-2.38-4.47-3.53c-6.42,12.6-10.89,27.43-6.95,41.48
		c-4.38-6.24-6.55-13.97-6.49-21.57c0.01-11.35,0-22.69,0.03-34.03c12.6,6.91,24.46,15.36,34.7,25.49c0,0.01,0,0.01-0.01,0.02
		c-0.73,0.88-2.57,3.45-3.12,7.49c-0.02,0.06-0.03,0.13-0.03,0.19c-0.01,0.07-0.01,0.13-0.01,0.19c-0.02,0.22-0.03,0.44-0.03,0.65
		c0,2.15,0.83,4.17,2.33,5.71c1.5,1.53,3.51,2.37,5.65,2.37c2.101,0,4.08-0.82,5.57-2.3c1.53-1.51,2.399-3.62,2.399-5.78
		c0-1.89-0.66-4.32-1.739-6.34c-0.061-0.13-0.13-0.26-0.2-0.38c-0.391-0.69-0.82-1.31-1.28-1.85
		c10.22-10.07,22.01-18.55,34.62-25.38c0.181,11.07,0.05,22.13,0.09,33.19c0.12,7.79-1.82,15.85-6.479,22.19
		c4.59-13.93-1.421-28.32-7.421-40.81c-1.68,1.03-3.289,2.19-4.819,3.44c3.51,7.33,6.76,14.97,7.83,23.09
		c1.14,12.45-1.9,26.13-11.421,34.85c16.311-6.439,27.881-23.08,28.21-40.609C319.461,137.65,319.391,122.63,319.391,107.62z
		 M275.341,152.79c-0.73,0.73-1.98,0.73-2.71-0.02c-0.39-0.4-0.61-0.93-0.61-1.5c0-0.3,0.06-0.72,0.17-1.19
		c0.16-0.69,0.44-1.51,0.83-2.27l0.14-0.25c0.33-0.59,0.63-0.96,0.84-1.17c0.2,0.21,0.5,0.57,0.82,1.15l0.09,0.17
		c0.449,0.82,0.75,1.72,0.92,2.47c0.09,0.43,0.14,0.8,0.14,1.09C275.971,151.85,275.751,152.39,275.341,152.79z M273.921,139.03
		c-5.19-4.86-10.47-9.66-16.23-13.87c4.82-8.31,10.18-16.32,16.22-23.8c5.66,7.82,11.06,15.88,15.62,24.39
		C283.891,129.63,279.081,134.59,273.921,139.03z"/>
</g>
<linearGradient id="SVGID_2_" gradientUnits="userSpaceOnUse" x1="273.98" y1="150.5601" x2="274.02" y2="150.5601">
	<stop  offset="0" style="stop-color:#B07EB7"/>
	<stop  offset="0.5" style="stop-color:#8C3D96"/>
	<stop  offset="1" style="stop-color:#762A90"/>
</linearGradient>
<path fill="url(#SVGID_2_)" d="M274.02,150.43c-0.01,0.07-0.01,0.13-0.01,0.19l-0.03,0.07C273.99,150.6,274,150.52,274.02,150.43z"
	/>
<g>
	<g>
		<linearGradient id="SVGID_3_" gradientUnits="userSpaceOnUse" x1="133.707" y1="219.3369" x2="412.7068" y2="213.3369">
			<stop  offset="0" style="stop-color:#B07EB7"/>
			<stop  offset="0.5" style="stop-color:#8C3D96"/>
			<stop  offset="1" style="stop-color:#762A90"/>
		</linearGradient>
		<path fill="url(#SVGID_3_)" d="M219.143,189.79c0,0.938-1.029,2.179-3.086,3.722c-0.817,0.606-2.043,1.514-3.677,2.724
			c-0.182,0.242-0.727,1.423-1.634,3.541c-1.634,3.783-3.178,8.307-4.63,13.572c-2.422,8.776-3.632,16.1-3.632,21.97
			c0,7.747,1.589,11.621,4.767,11.621c1.18,0,2.406-0.651,3.677-1.952c1.149-1.149,1.921-2.345,2.315-3.586h0.363v0.591
			c0,0.332-0.091,0.62-0.272,0.861c-0.515,1.665-1.543,3.117-3.087,4.358c-1.604,1.331-3.238,1.997-4.902,1.997
			c-4.691,0-7.036-3.934-7.036-11.803c0-11.68,3.601-24.496,10.803-38.447l-0.227-0.227c-5.538,4.66-10.773,10.985-15.706,18.974
			c-4.085,6.628-6.991,12.636-8.715,18.021c-0.031,1.604-0.122,4.024-0.272,7.263c-0.061,0.787-0.363,1.906-0.908,3.358
			c-0.787,2.119-1.695,3.179-2.723,3.179c-1.15,0-1.725-0.954-1.725-2.86c0-1.513,0.545-3.602,1.634-6.265
			c1.089-2.662,1.634-4.205,1.634-4.63c0-2.329-0.893-6.929-2.678-13.8c-1.393-5.325-2.527-9.184-3.405-11.575
			c-0.757-2.026-1.634-4.069-2.633-6.128c-0.03,0.152-0.106,0.349-0.227,0.591c-1.604,9.745-4.055,18.202-7.354,25.375
			c-4.237,9.229-9.427,15.055-15.57,17.476c-3.057,1.21-5.689,1.816-7.898,1.816c-2.845,0-5.387-0.772-7.626-2.315
			c-2.603-1.786-3.904-4.236-3.904-7.354c0-2.026,0.613-3.805,1.839-5.333c1.226-1.527,2.837-2.293,4.834-2.293
			c2.784,0,4.176,1.287,4.176,3.858c0,2.271-0.984,3.405-2.951,3.405c-0.544,0-0.938-0.061-1.18-0.182
			c-0.848-0.424-1.271-1.044-1.271-1.861c0-0.272,0.068-0.704,0.205-1.293c0.136-0.591,0.188-1.037,0.159-1.34
			c-0.272-0.393-0.575-0.59-0.908-0.59c-1.12,0-2.028,0.819-2.724,2.459c-0.515,1.215-0.772,2.339-0.772,3.37
			c0,1.032,0.272,2.05,0.817,3.052c1.754,3.279,4.796,4.918,9.124,4.918c4.085,0,8.458-2.15,13.119-6.45
			c3.722-3.452,6.96-8.298,9.714-14.537c3.026-6.873,5.039-13.506,6.037-19.896c0.211-1.241,0.59-3.438,1.135-6.587
			c-0.787-2.181-1.18-4.103-1.18-5.769c0-0.363,0.166-1.347,0.5-2.953c1.543-3.21,2.905-4.814,4.085-4.814h0.635
			c-0.484,0.848-0.726,1.77-0.726,2.769c0,1.725,0.877,5.962,2.633,12.71c3.116,11.923,5.159,21.426,6.128,28.506
			c0.242,0.062,0.483-0.182,0.726-0.726c3.087-6.719,6.491-12.801,10.213-18.248c2.148-3.177,4.645-6.37,7.49-9.577
			c1.18-1.332,3.283-3.224,6.31-5.675c0.636-0.394,1.528-0.999,2.678-1.815c0.272-0.272,0.893-1.195,1.861-2.77
			c0.393-0.635,1.135-1.354,2.224-2.155s1.952-1.204,2.587-1.204C218.871,188.836,219.143,189.154,219.143,189.79z M182.557,242.718
			c0-1.482-0.045-2.406-0.136-2.77c-0.394,0.606-0.833,1.68-1.316,3.224c-0.484,1.543-0.726,2.679-0.726,3.404
			c0,0.514,0.075,0.877,0.227,1.089h0.681C182.132,246.576,182.557,244.927,182.557,242.718z"/>
		<linearGradient id="SVGID_4_" gradientUnits="userSpaceOnUse" x1="133.9839" y1="232.3301" x2="412.9902" y2="226.3299">
			<stop  offset="0" style="stop-color:#B07EB7"/>
			<stop  offset="0.5" style="stop-color:#8C3D96"/>
			<stop  offset="1" style="stop-color:#762A90"/>
		</linearGradient>
		<path fill="url(#SVGID_4_)" d="M235.303,220.294c0,4.751-3.783,8.307-11.348,10.667c-0.787,0.242-1.619,0.47-2.497,0.682
			c-0.303,0.03-0.674,0.144-1.112,0.34c-0.439,0.197-0.78,0.87-1.021,2.02c-0.454,2.028-0.681,3.662-0.681,4.903
			c0,3.358,1.255,5.038,3.768,5.038c2.33,0,5.145-2.315,8.443-6.945h1.044c-0.757,1.998-2.073,3.844-3.949,5.538
			c-2.058,1.877-4.056,2.814-5.992,2.814c-3.995,0-6.552-2.708-7.671-8.125c-0.122-0.574-0.182-1.028-0.182-1.362
			c0-4.357,1.589-8.775,4.766-13.254c3.419-4.842,7.232-7.263,11.439-7.263C233.638,215.347,235.303,216.996,235.303,220.294z
			 M231.444,219.295c0-1.694-0.515-2.542-1.543-2.542c-2.754,0-5.569,3.571-8.443,10.713c-0.605,1.482-0.893,2.36-0.862,2.633
			c0.484,0.062,0.953,0.045,1.407-0.046c1.634-0.302,3.329-1.134,5.084-2.496c1.876-1.422,3.056-2.875,3.541-4.358
			C231.172,221.564,231.444,220.265,231.444,219.295z"/>
		<linearGradient id="SVGID_5_" gradientUnits="userSpaceOnUse" x1="134.0029" y1="233.0244" x2="412.9969" y2="227.0245">
			<stop  offset="0" style="stop-color:#B07EB7"/>
			<stop  offset="0.5" style="stop-color:#8C3D96"/>
			<stop  offset="1" style="stop-color:#762A90"/>
		</linearGradient>
		<path fill="url(#SVGID_5_)" d="M263.81,216.027c-0.696,2.239-3.102,9.26-7.217,21.062c-0.817,2.377-1.226,4.007-1.226,4.891
			c0,1.158,0.484,1.736,1.453,1.736c0.938,0,1.997-0.809,3.177-2.426c0.302-0.426,1.044-1.479,2.225-3.157h0.999v0.682
			c-0.031,0.03-0.348,0.605-0.954,1.725c-1.755,3.208-3.828,4.812-6.219,4.812c-2.481,0-4.13-1.981-4.948-5.946
			c-1.634,2.179-2.648,3.465-3.041,3.858c-1.211,1.181-2.512,1.77-3.904,1.77c-2.059,0-3.602-0.907-4.63-2.723
			c-0.757-1.332-1.135-2.829-1.135-4.494c0-1.997,0.923-5.197,2.769-9.601c1.846-4.403,2.769-7.315,2.769-8.738
			c0-1.271-0.348-1.906-1.044-1.906c-0.999,0-2.149,1.074-3.45,3.223h-1.18c0.302-1.18,1.029-2.321,2.179-3.428
			c1.149-1.104,2.299-1.656,3.45-1.656c2.724,0,4.085,1.877,4.085,5.629c0,2.027-0.969,5.311-2.905,9.85
			c-1.937,4.54-2.905,7.793-2.905,9.76c0,1.847,0.727,2.769,2.18,2.769c1.211,0,2.559-0.906,4.042-2.722
			c0.999-1.241,1.854-2.604,2.566-4.085c0.711-1.482,1.9-4.206,3.565-8.17c1.056-2.967,2.593-7.175,4.614-12.625
			c0.395-0.179,1.183-0.27,2.365-0.27C262.46,215.845,263.234,215.906,263.81,216.027z"/>
		<linearGradient id="SVGID_6_" gradientUnits="userSpaceOnUse" x1="134.0098" y1="233.5684" x2="413.0148" y2="227.5682">
			<stop  offset="0" style="stop-color:#B07EB7"/>
			<stop  offset="0.5" style="stop-color:#8C3D96"/>
			<stop  offset="1" style="stop-color:#762A90"/>
		</linearGradient>
		<path fill="url(#SVGID_6_)" d="M292.952,216.798c-0.121,0.425-0.667,2.089-1.634,4.993c-4.208,12.56-6.311,19.202-6.311,19.928
			v0.682c0,1.119,0.515,1.68,1.544,1.68c1.301,0,2.979-1.846,5.038-5.539h1.18c-2.148,4.631-4.509,6.945-7.08,6.945
			c-1.604,0-2.8-0.619-3.586-1.86c-0.364-0.574-0.833-1.922-1.408-4.041c-1.755,2.119-2.859,3.391-3.313,3.813
			c-1.393,1.271-2.89,1.907-4.494,1.907c-4.237,0-6.355-3.269-6.355-9.805c0-6.9,2.829-12.665,8.488-17.295
			c2.421-1.997,4.69-2.996,6.81-2.996c2.208,0,3.979,1.378,5.311,4.13c0.302-0.695,0.817-1.709,1.544-3.041h4.039
			C292.876,216.39,292.952,216.557,292.952,216.798z M285.553,221.882c0-3.54-1.029-5.31-3.087-5.31c-2.33,0-4.69,2.512-7.081,7.534
			c-1.786,3.723-3.057,7.399-3.813,11.03c-0.363,1.726-0.544,3.391-0.544,4.994c0,2.512,0.847,3.767,2.542,3.767
			c2.179,0,4.479-2.193,6.899-6.582c1.755-3.177,3.116-6.445,4.086-9.805C285.219,225.182,285.553,223.306,285.553,221.882z"/>
		<linearGradient id="SVGID_7_" gradientUnits="userSpaceOnUse" x1="134.0234" y1="234.0596" x2="413.0245" y2="228.0595">
			<stop  offset="0" style="stop-color:#B07EB7"/>
			<stop  offset="0.5" style="stop-color:#8C3D96"/>
			<stop  offset="1" style="stop-color:#762A90"/>
		</linearGradient>
		<path fill="url(#SVGID_7_)" d="M320.097,221.52c0,1.543-0.59,3.103-1.77,4.675c-1.271,1.695-2.724,2.542-4.358,2.542
			c-1.906,0-2.859-0.877-2.859-2.633c0-0.786,0.295-1.527,0.885-2.224c0.591-0.695,1.278-1.044,2.065-1.044
			c0.575,0,1.028,0.258,1.362,0.771c0.332,0.516,0.604,0.771,0.816,0.771c1.331,0,1.997-1.104,1.997-3.313
			c0-0.908-0.333-1.664-0.998-2.27c-0.666-0.605-1.469-0.907-2.406-0.907c-3.358,0-6.931,3.948-10.712,11.847
			c-1.333,2.754-2.497,5.568-3.496,8.443l-2.405,6.718c-0.152,0.243-0.696,0.363-1.634,0.363c-0.334,0-0.84-0.029-1.521-0.091
			c-0.682-0.06-1.188-0.091-1.521-0.091c-0.121-0.03-0.182-0.151-0.182-0.363l4.54-12.71c0.482-1.301,1.225-3.269,2.224-5.901
			c1.361-3.691,2.042-6.066,2.042-7.126c0-0.938-0.394-1.407-1.18-1.407c-0.817,0-1.611,0.567-2.383,1.702
			c-0.772,1.135-1.279,1.702-1.521,1.702c-0.271,0-0.529-0.121-0.771-0.363c1.604-3.238,3.435-4.856,5.493-4.856
			c2.874,0,4.206,2.359,3.994,7.081c3.571-4.418,6.612-6.627,9.124-6.627c1.543,0,2.792,0.498,3.745,1.497
			S320.097,219.977,320.097,221.52z"/>
		<linearGradient id="SVGID_8_" gradientUnits="userSpaceOnUse" x1="133.8599" y1="226.4482" x2="412.8594" y2="220.4482">
			<stop  offset="0" style="stop-color:#B07EB7"/>
			<stop  offset="0.5" style="stop-color:#8C3D96"/>
			<stop  offset="1" style="stop-color:#762A90"/>
		</linearGradient>
		<path fill="url(#SVGID_8_)" d="M339.889,213.485c-0.213,0.675-0.44,1.175-0.684,1.497h-5.42l-5.549,15.649
			c-2.219,6.361-3.328,10.011-3.328,10.949c0,1.545,0.636,2.316,1.906,2.316c2.088,0,4.237-2.254,6.446-6.763h0.908
			c0.091,0.271,0.091,0.499,0,0.681c-0.152,0.272-0.394,0.741-0.727,1.407c-1.968,4.056-4.448,6.083-7.444,6.083
			c-3.299,0-4.948-1.801-4.948-5.402c0-2.36,2.633-10.667,7.898-24.921h-5.9c0.181-0.363,0.393-0.862,0.635-1.497h5.72l5.129-14.345
			h4.726l-5.081,14.345H339.889z"/>
		<linearGradient id="SVGID_9_" gradientUnits="userSpaceOnUse" x1="134.0391" y1="235.0107" x2="413.0454" y2="229.0106">
			<stop  offset="0" style="stop-color:#B07EB7"/>
			<stop  offset="0.5" style="stop-color:#8C3D96"/>
			<stop  offset="1" style="stop-color:#762A90"/>
		</linearGradient>
		<path fill="url(#SVGID_9_)" d="M360.042,220.294c0,4.751-3.783,8.307-11.349,10.667c-0.787,0.242-1.619,0.47-2.496,0.682
			c-0.303,0.03-0.674,0.144-1.112,0.34c-0.438,0.197-0.779,0.87-1.021,2.02c-0.454,2.028-0.682,3.662-0.682,4.903
			c0,3.358,1.256,5.038,3.768,5.038c2.33,0,5.145-2.315,8.443-6.945h1.044c-0.757,1.998-2.073,3.844-3.949,5.538
			c-2.058,1.877-4.056,2.814-5.991,2.814c-3.995,0-6.553-2.708-7.672-8.125c-0.122-0.574-0.182-1.028-0.182-1.362
			c0-4.357,1.589-8.775,4.767-13.254c3.419-4.842,7.231-7.263,11.438-7.263C358.377,215.347,360.042,216.996,360.042,220.294z
			 M356.184,219.295c0-1.694-0.515-2.542-1.543-2.542c-2.755,0-5.568,3.571-8.443,10.713c-0.605,1.482-0.893,2.36-0.862,2.633
			c0.483,0.062,0.953,0.045,1.407-0.046c1.634-0.302,3.328-1.134,5.084-2.496c1.876-1.422,3.056-2.875,3.541-4.358
			C355.911,221.564,356.184,220.265,356.184,219.295z"/>
		<linearGradient id="SVGID_10_" gradientUnits="userSpaceOnUse" x1="133.7915" y1="223.0742" x2="412.7877" y2="217.0743">
			<stop  offset="0" style="stop-color:#B07EB7"/>
			<stop  offset="0.5" style="stop-color:#8C3D96"/>
			<stop  offset="1" style="stop-color:#762A90"/>
		</linearGradient>
		<path fill="url(#SVGID_10_)" d="M388.912,194.196c0,1.272-0.334,3.014-0.998,5.225c-1.12,3.695-3.194,7.527-6.22,11.494
			c-3.42,4.482-7.006,7.678-10.758,9.586c-0.363,0.182-0.742,0.515-1.135,0.999c-2.088,6.543-3.133,11.994-3.133,16.356
			c0,3.967,1.226,5.95,3.678,5.95c2.572,0,4.902-2.269,6.99-6.809h1.181c-0.666,2.119-1.68,3.949-3.041,5.492
			c-1.666,1.878-3.466,2.815-5.402,2.815c-1.664,0-3.216-0.674-4.652-2.021c-1.438-1.346-2.293-2.852-2.565-4.517
			c-0.362-2.3-0.544-3.797-0.544-4.493c0-5.448,1.648-12.195,4.947-20.245c3.268-7.96,6.809-13.937,10.622-17.931
			c3.661-3.843,6.385-5.765,8.17-5.765C387.959,190.335,388.912,191.622,388.912,194.196z M387.051,193.603
			c0-1.18-0.439-1.771-1.316-1.771c-2.27,0-5.174,3.526-8.716,10.577c-2.541,5.055-4.705,10.274-6.491,15.66
			c-0.061,0.182-0.121,0.516-0.181,0.999c0.151-0.029,1.725-1.226,4.721-3.587c1.876-1.481,4.297-4.796,7.263-9.94
			C385.478,200.064,387.051,196.085,387.051,193.603z"/>
		<linearGradient id="SVGID_11_" gradientUnits="userSpaceOnUse" x1="133.9497" y1="230.2383" x2="412.9402" y2="224.2385">
			<stop  offset="0" style="stop-color:#B07EB7"/>
			<stop  offset="0.5" style="stop-color:#8C3D96"/>
			<stop  offset="1" style="stop-color:#762A90"/>
		</linearGradient>
		<path fill="url(#SVGID_11_)" d="M392.452,238.905c0,0.181-0.287,0.756-0.862,1.725c-1.876,3.117-4.024,4.676-6.445,4.676
			c-3.057,0-4.584-1.771-4.584-5.312c0-2.209,1.111-5.871,3.336-10.984c2.225-5.114,3.336-8.429,3.336-9.941
			c0-1.09-0.379-1.634-1.135-1.634c-0.605,0-1.347,0.521-2.225,1.565c-0.877,1.044-1.346,1.565-1.407,1.565h-0.771
			c-0.121-0.029-0.181-0.15-0.181-0.362c0-0.363,0.423-1.051,1.271-2.065c0.847-1.014,1.468-1.611,1.861-1.793
			c0.938-0.454,1.74-0.681,2.406-0.681c2.753,0,4.13,1.605,4.13,4.818c0,1.941-1.135,5.73-3.404,11.367
			c-2.27,5.639-3.404,9.048-3.404,10.23c0,1.151,0.483,1.727,1.453,1.727c1.089,0,2.208-0.731,3.358-2.196
			c0.272-0.366,1.014-1.404,2.224-3.114h0.863C392.393,238.527,392.452,238.663,392.452,238.905z M393.996,206.767
			c0,1.15-0.349,2.27-1.044,3.359c-0.787,1.21-1.725,1.815-2.814,1.815c-1.332,0-1.997-0.953-1.997-2.86
			c0-0.816,0.272-1.739,0.816-2.769c0.727-1.391,1.664-2.088,2.815-2.088C393.254,204.225,393.996,205.072,393.996,206.767z"/>
		<linearGradient id="SVGID_12_" gradientUnits="userSpaceOnUse" x1="134.0645" y1="236.2393" x2="413.0708" y2="230.2391">
			<stop  offset="0" style="stop-color:#B07EB7"/>
			<stop  offset="0.5" style="stop-color:#8C3D96"/>
			<stop  offset="1" style="stop-color:#762A90"/>
		</linearGradient>
		<path fill="url(#SVGID_12_)" d="M417.191,220.294c0,4.751-3.783,8.307-11.348,10.667c-0.787,0.242-1.62,0.47-2.497,0.682
			c-0.303,0.03-0.674,0.144-1.111,0.34c-0.44,0.197-0.78,0.87-1.022,2.02c-0.453,2.028-0.681,3.662-0.681,4.903
			c0,3.358,1.255,5.038,3.768,5.038c2.33,0,5.145-2.315,8.443-6.945h1.044c-0.757,1.998-2.073,3.844-3.949,5.538
			c-2.059,1.877-4.056,2.814-5.992,2.814c-3.994,0-6.552-2.708-7.671-8.125c-0.122-0.574-0.182-1.028-0.182-1.362
			c0-4.357,1.589-8.775,4.767-13.254c3.419-4.842,7.232-7.263,11.438-7.263C415.527,215.347,417.191,216.996,417.191,220.294z
			 M413.333,219.295c0-1.694-0.515-2.542-1.543-2.542c-2.755,0-5.569,3.571-8.443,10.713c-0.605,1.482-0.894,2.36-0.862,2.633
			c0.484,0.062,0.953,0.045,1.407-0.046c1.634-0.302,3.328-1.134,5.084-2.496c1.876-1.422,3.056-2.875,3.54-4.358
			C413.061,221.564,413.333,220.265,413.333,219.295z"/>
	</g>
	<g>
		<g>
			<path fill="#423F3F" d="M178.041,256.776v1.924c0,0.416,0.045,0.675,0.139,0.775c0.12,0.141,0.306,0.212,0.556,0.212h0.255v0.182
				h-2.833v-0.182h0.248c0.282,0,0.482-0.091,0.6-0.272c0.068-0.101,0.103-0.339,0.103-0.715v-4.267
				c0-0.415-0.044-0.674-0.134-0.774c-0.129-0.146-0.318-0.219-0.568-0.219h-0.248v-0.181h2.421c0.593,0,1.06,0.062,1.402,0.184
				c0.34,0.124,0.628,0.329,0.862,0.618s0.352,0.631,0.352,1.026c0,0.54-0.178,0.979-0.534,1.315
				c-0.354,0.337-0.857,0.506-1.507,0.506c-0.161,0-0.334-0.012-0.52-0.033C178.447,256.854,178.25,256.82,178.041,256.776z
				 M178.041,256.498c0.172,0.032,0.327,0.057,0.459,0.072c0.134,0.017,0.247,0.024,0.339,0.024c0.339,0,0.63-0.132,0.874-0.394
				c0.245-0.262,0.367-0.601,0.367-1.017c0-0.282-0.059-0.548-0.175-0.794c-0.117-0.246-0.283-0.43-0.496-0.551
				c-0.214-0.121-0.457-0.181-0.727-0.181c-0.166,0-0.38,0.029-0.641,0.09V256.498z"/>
			<path fill="#423F3F" d="M189.533,253.108c0.855,0,1.598,0.326,2.228,0.977c0.629,0.652,0.944,1.467,0.944,2.442
				c0,1.006-0.318,1.838-0.951,2.5c-0.634,0.662-1.4,0.992-2.3,0.992c-0.909,0-1.672-0.322-2.292-0.968s-0.929-1.483-0.929-2.512
				c0-1.05,0.357-1.905,1.071-2.566C187.927,253.397,188.669,253.108,189.533,253.108z M189.442,253.466
				c-0.593,0-1.067,0.22-1.422,0.659c-0.447,0.544-0.672,1.344-0.672,2.397c0,1.076,0.232,1.905,0.696,2.487
				c0.352,0.443,0.816,0.666,1.398,0.666c0.622,0,1.135-0.242,1.541-0.727c0.405-0.484,0.609-1.247,0.609-2.288
				c0-1.134-0.225-1.978-0.671-2.53C190.563,253.687,190.072,253.466,189.442,253.466z"/>
			<path fill="#423F3F" d="M204.173,259.869h-1.762l-2.238-3.088c-0.166,0.004-0.301,0.007-0.407,0.007
				c-0.04,0-0.084-0.001-0.132-0.003c-0.049-0.002-0.1-0.004-0.152-0.004v1.919c0,0.416,0.045,0.675,0.134,0.775
				c0.124,0.141,0.311,0.212,0.557,0.212h0.26v0.182h-2.833v-0.182h0.248c0.278,0,0.478-0.091,0.599-0.272
				c0.068-0.101,0.104-0.339,0.104-0.715v-4.267c0-0.415-0.045-0.674-0.134-0.774c-0.129-0.146-0.318-0.219-0.568-0.219h-0.248
				v-0.181h2.409c0.702,0,1.219,0.051,1.553,0.154c0.333,0.103,0.616,0.291,0.847,0.565c0.233,0.275,0.349,0.602,0.349,0.98
				c0,0.408-0.133,0.761-0.397,1.06c-0.263,0.299-0.674,0.511-1.231,0.636l1.361,1.894c0.315,0.437,0.585,0.727,0.809,0.869
				c0.224,0.143,0.516,0.233,0.875,0.27V259.869z M199.482,256.473c0.061,0,0.114,0.002,0.16,0.004
				c0.046,0.001,0.084,0.002,0.113,0.002c0.629,0,1.104-0.137,1.425-0.41c0.321-0.274,0.482-0.622,0.482-1.041
				c0-0.413-0.13-0.747-0.387-1.005c-0.26-0.259-0.603-0.388-1.03-0.388c-0.186,0-0.439,0.03-0.763,0.091V256.473z"/>
			<path fill="#423F3F" d="M214.202,253.26l0.073,1.549h-0.188c-0.031-0.271-0.08-0.464-0.145-0.581
				c-0.1-0.189-0.235-0.329-0.402-0.417c-0.167-0.09-0.386-0.134-0.656-0.134h-0.932v5.048c0,0.403,0.044,0.655,0.133,0.757
				c0.121,0.137,0.31,0.206,0.569,0.206h0.229v0.182h-2.803v-0.182h0.237c0.279,0,0.476-0.085,0.593-0.254
				c0.068-0.102,0.102-0.337,0.102-0.709v-5.048h-0.792c-0.306,0-0.524,0.022-0.654,0.067c-0.169,0.061-0.314,0.179-0.436,0.354
				c-0.122,0.175-0.191,0.413-0.211,0.711h-0.188l0.079-1.549H214.202z"/>
			<path fill="#423F3F" d="M223.425,257.66h-2.554l-0.449,1.04c-0.112,0.255-0.168,0.446-0.168,0.576
				c0,0.101,0.048,0.189,0.145,0.265c0.097,0.077,0.305,0.126,0.623,0.146v0.182h-2.082v-0.182c0.275-0.049,0.452-0.11,0.534-0.188
				c0.165-0.157,0.348-0.474,0.55-0.951l2.324-5.44h0.175l2.3,5.502c0.182,0.438,0.348,0.725,0.5,0.856
				c0.151,0.131,0.363,0.204,0.632,0.221v0.182h-2.608v-0.182c0.266-0.012,0.444-0.056,0.535-0.131
				c0.091-0.074,0.136-0.166,0.136-0.274c0-0.142-0.064-0.366-0.194-0.672L223.425,257.66z M223.291,257.297l-1.119-2.67
				l-1.151,2.67H223.291z"/>
			<path fill="#423F3F" d="M233.49,259.688v0.182h-2.833v-0.182h0.236c0.271,0,0.468-0.079,0.593-0.236
				c0.078-0.104,0.114-0.354,0.114-0.751v-4.267c0-0.336-0.02-0.557-0.06-0.666c-0.032-0.081-0.1-0.149-0.2-0.206
				c-0.145-0.08-0.295-0.121-0.448-0.121h-0.236v-0.181h2.833v0.181h-0.242c-0.266,0-0.462,0.081-0.587,0.243
				c-0.081,0.101-0.121,0.351-0.121,0.75v4.267c0,0.335,0.021,0.556,0.061,0.66c0.032,0.081,0.102,0.151,0.207,0.212
				c0.141,0.076,0.288,0.115,0.441,0.115H233.49z"/>
			<path fill="#423F3F" d="M242.647,253.108v2.288h-0.182c-0.057-0.44-0.161-0.79-0.312-1.048c-0.151-0.259-0.368-0.463-0.648-0.617
				c-0.28-0.153-0.57-0.23-0.869-0.23c-0.335,0-0.614,0.104-0.835,0.31c-0.222,0.205-0.333,0.439-0.333,0.702
				c0,0.201,0.07,0.385,0.211,0.551c0.202,0.246,0.68,0.571,1.435,0.975c0.618,0.33,1.039,0.585,1.265,0.763
				c0.226,0.177,0.399,0.386,0.521,0.626c0.121,0.24,0.182,0.491,0.182,0.754c0,0.501-0.194,0.932-0.582,1.295
				c-0.388,0.363-0.886,0.544-1.495,0.544c-0.193,0-0.375-0.014-0.545-0.042c-0.101-0.016-0.311-0.075-0.627-0.179
				c-0.316-0.103-0.517-0.154-0.602-0.154c-0.082,0-0.145,0.024-0.191,0.073c-0.046,0.048-0.082,0.149-0.106,0.302h-0.175v-2.264
				h0.175c0.085,0.472,0.199,0.826,0.342,1.063c0.144,0.236,0.363,0.433,0.658,0.588c0.293,0.154,0.617,0.232,0.968,0.232
				c0.404,0,0.724-0.107,0.959-0.32c0.236-0.215,0.354-0.468,0.354-0.763c0-0.162-0.044-0.325-0.133-0.49
				c-0.09-0.166-0.229-0.319-0.418-0.46c-0.125-0.098-0.47-0.304-1.034-0.621c-0.566-0.316-0.968-0.569-1.208-0.759
				c-0.241-0.189-0.421-0.398-0.544-0.627c-0.124-0.228-0.186-0.477-0.186-0.747c0-0.476,0.183-0.887,0.546-1.229
				c0.363-0.345,0.827-0.515,1.393-0.515c0.35,0,0.722,0.086,1.113,0.26c0.182,0.081,0.311,0.121,0.387,0.121
				c0.081,0,0.149-0.024,0.203-0.075c0.055-0.051,0.098-0.153,0.131-0.306H242.647z"/>
		</g>
		<path fill="#423F3F" d="M252.199,259.869v-0.182h0.248c0.278,0,0.476-0.089,0.593-0.266c0.073-0.11,0.108-0.35,0.108-0.722v-4.267
			c0-0.415-0.044-0.674-0.133-0.774c-0.129-0.146-0.318-0.219-0.568-0.219h-0.248v-0.181h2.693c0.985,0,1.734,0.112,2.249,0.338
			c0.515,0.227,0.929,0.601,1.244,1.123c0.315,0.523,0.473,1.127,0.473,1.813c0,0.916-0.281,1.682-0.842,2.3
			c-0.625,0.689-1.58,1.035-2.862,1.035H252.199z M254.086,259.391c0.412,0.094,0.757,0.14,1.035,0.14
			c0.755,0,1.38-0.266,1.876-0.796c0.497-0.531,0.745-1.248,0.745-2.152c0-0.916-0.248-1.635-0.745-2.16
			c-0.496-0.524-1.135-0.787-1.912-0.787c-0.295,0-0.628,0.046-1,0.139V259.391z"/>
		<path fill="#423F3F" d="M266.657,259.688v0.182h-2.833v-0.182h0.235c0.271,0,0.469-0.079,0.594-0.236
			c0.077-0.104,0.115-0.354,0.115-0.751v-4.267c0-0.336-0.02-0.557-0.061-0.666c-0.032-0.081-0.098-0.149-0.2-0.206
			c-0.145-0.08-0.294-0.121-0.448-0.121h-0.235v-0.181h2.833v0.181h-0.243c-0.266,0-0.462,0.081-0.586,0.243
			c-0.081,0.101-0.121,0.351-0.121,0.75v4.267c0,0.335,0.02,0.556,0.061,0.66c0.031,0.081,0.101,0.151,0.206,0.212
			c0.141,0.076,0.288,0.115,0.441,0.115H266.657z"/>
		<path fill="#423F3F" d="M275.323,259.869l-2.555-5.563v4.418c0,0.403,0.045,0.655,0.134,0.757
			c0.117,0.137,0.307,0.206,0.569,0.206h0.23v0.182h-2.3v-0.182h0.236c0.277,0,0.476-0.085,0.593-0.254
			c0.073-0.102,0.109-0.337,0.109-0.709v-4.314c0-0.296-0.033-0.508-0.097-0.637c-0.045-0.093-0.128-0.171-0.252-0.235
			c-0.123-0.065-0.319-0.098-0.589-0.098v-0.181h1.87l2.403,5.175l2.354-5.175h1.87v0.181h-0.23c-0.282,0-0.481,0.086-0.599,0.254
			c-0.068,0.105-0.104,0.344-0.104,0.716v4.314c0,0.403,0.044,0.655,0.134,0.757c0.122,0.137,0.311,0.206,0.568,0.206h0.23v0.182
			h-2.802v-0.182h0.229c0.283,0,0.479-0.085,0.593-0.254c0.073-0.102,0.109-0.337,0.109-0.709v-4.418l-2.549,5.563H275.323z"/>
		<path fill="#423F3F" d="M286.539,253.623v2.608h1.446c0.379,0,0.63-0.056,0.757-0.17c0.169-0.149,0.264-0.411,0.283-0.786h0.182
			v2.299h-0.182c-0.044-0.322-0.09-0.527-0.139-0.617c-0.057-0.117-0.151-0.207-0.285-0.272c-0.133-0.063-0.338-0.096-0.616-0.096
			h-1.446v2.179c0,0.295,0.011,0.473,0.035,0.535s0.07,0.112,0.137,0.148c0.066,0.037,0.19,0.055,0.372,0.055h1.119
			c0.372,0,0.642-0.024,0.813-0.075c0.169-0.052,0.333-0.153,0.489-0.307c0.202-0.201,0.407-0.506,0.617-0.913h0.193l-0.568,1.658
			h-5.091v-0.182h0.23c0.158,0,0.307-0.036,0.448-0.109c0.1-0.053,0.17-0.13,0.208-0.235c0.039-0.105,0.058-0.316,0.058-0.637
			v-4.296c0-0.416-0.043-0.675-0.127-0.775c-0.116-0.129-0.313-0.194-0.587-0.194h-0.23v-0.181h5.091l0.072,1.452h-0.188
			c-0.067-0.351-0.144-0.591-0.227-0.72c-0.083-0.13-0.205-0.229-0.366-0.298c-0.134-0.048-0.364-0.071-0.69-0.071H286.539z"/>
		<path fill="#423F3F" d="M294.75,253.26h1.798l4.038,4.956v-3.806c0-0.408-0.046-0.662-0.139-0.764
			c-0.118-0.137-0.308-0.206-0.57-0.206h-0.229v-0.181h2.3v0.181h-0.23c-0.282,0-0.481,0.086-0.599,0.254
			c-0.069,0.105-0.104,0.344-0.104,0.716v5.567h-0.176l-4.357-5.32v4.067c0,0.403,0.044,0.655,0.134,0.757
			c0.12,0.137,0.311,0.206,0.568,0.206h0.236v0.182h-2.3v-0.182h0.224c0.286,0,0.486-0.085,0.599-0.254
			c0.073-0.102,0.109-0.337,0.109-0.709v-4.594c-0.19-0.226-0.334-0.375-0.433-0.445c-0.1-0.07-0.245-0.138-0.438-0.203
			c-0.094-0.027-0.236-0.042-0.431-0.042V253.26z"/>
		<path fill="#423F3F" d="M312.206,253.26l0.072,1.549h-0.188c-0.032-0.271-0.08-0.464-0.146-0.581
			c-0.1-0.189-0.234-0.329-0.4-0.417c-0.17-0.09-0.388-0.134-0.658-0.134h-0.932v5.048c0,0.403,0.044,0.655,0.134,0.757
			c0.121,0.137,0.31,0.206,0.568,0.206h0.229v0.182h-2.803v-0.182h0.236c0.279,0,0.478-0.085,0.594-0.254
			c0.068-0.102,0.103-0.337,0.103-0.709v-5.048h-0.793c-0.307,0-0.524,0.022-0.653,0.067c-0.17,0.061-0.315,0.179-0.436,0.354
			c-0.121,0.175-0.192,0.413-0.212,0.711h-0.188l0.079-1.549H312.206z"/>
		<path fill="#423F3F" d="M319.945,259.688v0.182h-2.832v-0.182h0.236c0.27,0,0.469-0.079,0.592-0.236
			c0.078-0.104,0.116-0.354,0.116-0.751v-4.267c0-0.336-0.021-0.557-0.062-0.666c-0.031-0.081-0.098-0.149-0.199-0.206
			c-0.145-0.08-0.295-0.121-0.447-0.121h-0.236v-0.181h2.832v0.181h-0.242c-0.266,0-0.461,0.081-0.587,0.243
			c-0.081,0.101-0.121,0.351-0.121,0.75v4.267c0,0.335,0.021,0.556,0.061,0.66c0.032,0.081,0.102,0.151,0.206,0.212
			c0.142,0.076,0.289,0.115,0.441,0.115H319.945z"/>
		<path fill="#423F3F" d="M328.177,253.108c0.854,0,1.598,0.326,2.227,0.977c0.63,0.652,0.945,1.467,0.945,2.442
			c0,1.006-0.317,1.838-0.951,2.5c-0.633,0.662-1.4,0.992-2.3,0.992c-0.908,0-1.671-0.322-2.291-0.968
			c-0.619-0.646-0.93-1.483-0.93-2.512c0-1.05,0.357-1.905,1.071-2.566C326.57,253.397,327.313,253.108,328.177,253.108z
			 M328.085,253.466c-0.592,0-1.066,0.22-1.422,0.659c-0.448,0.544-0.672,1.344-0.672,2.397c0,1.076,0.232,1.905,0.696,2.487
			c0.352,0.443,0.817,0.666,1.397,0.666c0.622,0,1.135-0.242,1.541-0.727c0.405-0.484,0.609-1.247,0.609-2.288
			c0-1.134-0.225-1.978-0.673-2.53C329.207,253.687,328.716,253.466,328.085,253.466z"/>
		<path fill="#423F3F" d="M335.939,253.26h1.8l4.036,4.956v-3.806c0-0.408-0.046-0.662-0.139-0.764
			c-0.118-0.137-0.307-0.206-0.569-0.206h-0.229v-0.181h2.301v0.181h-0.231c-0.283,0-0.481,0.086-0.599,0.254
			c-0.068,0.105-0.104,0.344-0.104,0.716v5.567h-0.176l-4.357-5.32v4.067c0,0.403,0.044,0.655,0.134,0.757
			c0.121,0.137,0.31,0.206,0.568,0.206h0.236v0.182h-2.3v-0.182h0.224c0.286,0,0.487-0.085,0.599-0.254
			c0.073-0.102,0.11-0.337,0.11-0.709v-4.594c-0.191-0.226-0.334-0.375-0.434-0.445s-0.245-0.138-0.439-0.203
			c-0.092-0.027-0.234-0.042-0.431-0.042V253.26z"/>
		<path fill="#423F3F" d="M352.186,257.66h-2.555l-0.447,1.04c-0.113,0.255-0.17,0.446-0.17,0.576c0,0.101,0.049,0.189,0.145,0.265
			c0.098,0.077,0.306,0.126,0.624,0.146v0.182h-2.083v-0.182c0.275-0.049,0.453-0.11,0.534-0.188
			c0.164-0.157,0.348-0.474,0.55-0.951l2.324-5.44h0.176l2.301,5.502c0.182,0.438,0.348,0.725,0.499,0.856
			c0.152,0.131,0.362,0.204,0.632,0.221v0.182h-2.608v-0.182c0.267-0.012,0.445-0.056,0.536-0.131
			c0.091-0.074,0.135-0.166,0.135-0.274c0-0.142-0.063-0.366-0.192-0.672L352.186,257.66z M352.052,257.297l-1.119-2.67l-1.15,2.67
			H352.052z"/>
		<path fill="#423F3F" d="M362.25,259.688v0.182h-2.833v-0.182h0.235c0.271,0,0.469-0.079,0.595-0.236
			c0.076-0.104,0.114-0.354,0.114-0.751v-4.267c0-0.336-0.021-0.557-0.061-0.666c-0.032-0.081-0.099-0.149-0.199-0.206
			c-0.146-0.08-0.295-0.121-0.449-0.121h-0.235v-0.181h2.833v0.181h-0.242c-0.266,0-0.463,0.081-0.588,0.243
			c-0.08,0.101-0.121,0.351-0.121,0.75v4.267c0,0.335,0.021,0.556,0.062,0.66c0.032,0.081,0.101,0.151,0.206,0.212
			c0.141,0.076,0.288,0.115,0.441,0.115H362.25z"/>
		<path fill="#423F3F" d="M371.407,253.108v2.288h-0.183c-0.056-0.44-0.16-0.79-0.311-1.048c-0.152-0.259-0.368-0.463-0.648-0.617
			c-0.28-0.153-0.569-0.23-0.868-0.23c-0.336,0-0.613,0.104-0.836,0.31c-0.222,0.205-0.333,0.439-0.333,0.702
			c0,0.201,0.072,0.385,0.212,0.551c0.202,0.246,0.681,0.571,1.435,0.975c0.618,0.33,1.04,0.585,1.266,0.763
			c0.226,0.177,0.399,0.386,0.521,0.626s0.182,0.491,0.182,0.754c0,0.501-0.194,0.932-0.582,1.295s-0.886,0.544-1.494,0.544
			c-0.193,0-0.376-0.014-0.545-0.042c-0.101-0.016-0.31-0.075-0.627-0.179c-0.316-0.103-0.518-0.154-0.602-0.154
			c-0.081,0-0.146,0.024-0.191,0.073c-0.046,0.048-0.081,0.149-0.104,0.302h-0.177v-2.264h0.177c0.084,0.472,0.198,0.826,0.34,1.063
			c0.145,0.236,0.363,0.433,0.658,0.588c0.294,0.154,0.617,0.232,0.968,0.232c0.403,0,0.724-0.107,0.96-0.32
			c0.235-0.215,0.354-0.468,0.354-0.763c0-0.162-0.045-0.325-0.134-0.49c-0.09-0.166-0.228-0.319-0.418-0.46
			c-0.125-0.098-0.47-0.304-1.035-0.621c-0.564-0.316-0.968-0.569-1.207-0.759c-0.24-0.189-0.422-0.398-0.545-0.627
			c-0.123-0.228-0.185-0.477-0.185-0.747c0-0.476,0.182-0.887,0.545-1.229c0.362-0.345,0.827-0.515,1.392-0.515
			c0.352,0,0.723,0.086,1.115,0.26c0.182,0.081,0.309,0.121,0.386,0.121c0.081,0,0.148-0.024,0.202-0.075
			c0.056-0.051,0.098-0.153,0.131-0.306H371.407z"/>
	</g>
	<linearGradient id="SVGID_13_" gradientUnits="userSpaceOnUse" x1="404.1055" y1="208.877" x2="415.332" y2="208.877">
		<stop  offset="0" style="stop-color:#B07EB7"/>
		<stop  offset="0.5" style="stop-color:#8C3D96"/>
		<stop  offset="1" style="stop-color:#762A90"/>
	</linearGradient>
	<polygon fill="url(#SVGID_13_)" points="410.669,205.053 409.853,204.997 404.105,211.988 406.368,212.143 410.056,207.633 
		413.092,212.604 415.332,212.758 	"/>
</g>
</svg>
