<svg version="1.1" id="Layer_1" xmlns="http://www.w3.org/2000/svg" xmlns:xlink="http://www.w3.org/1999/xlink" x="0px" y="0px" viewBox="0 0 110 110" xml:space="preserve">
 <defs>
  <linearGradient id="SVGID_1_" x1="0" y1="0.5" x2="0.99999" y2="0.5">
   <stop offset="0" stop-color="#B07EB7"/>
   <stop offset="0.5" stop-color="#8C3D96"/>
   <stop offset="1" stop-color="#762A90"/>
  </linearGradient>
  <linearGradient id="SVGID_2_" x1="-0.00027" y1="0.50039" x2="1.00027" y2="0.50039">
   <stop offset="0" stop-color="#B07EB7"/>
   <stop offset="0.5" stop-color="#8C3D96"/>
   <stop offset="1" stop-color="#762A90"/>
  </linearGradient>
 </defs>
 <g>
  <title>Layer 1</title>
  <g id="svg_1">
   <path fill="url(#SVGID_1_)" d="m98.65172,17.71289c-9.01,3.63 -16.899,9.42 -25.18,14.36c-5.84,-10.52 -12.7,-20.43 -19.89,-30.05c-8.47,8.89 -14.96,19.41 -21.59,29.68c-7.62,-5.27 -15.54,-10.19 -23.99,-14.02c-0.26,15.02 -0.12,30.06 -0.1,45.09c0.27,17.53 11.86,34.04 28.05,40.639c-1.94,-2.339 -4.16,-4.47 -5.69,-7.1c-5.64,-9.62 -6.89,-21.33 -4.96,-32.19c1.09,-6.69 3.92,-12.89 6.36,-19.14c-1.28,-1.42 -2.96,-2.38 -4.47,-3.53c-6.42,12.6 -10.89,27.43 -6.95,41.48c-4.38,-6.24 -6.55,-13.97 -6.49,-21.57c0.01,-11.35 0,-22.69 0.03,-34.03c12.6,6.91 24.46,15.36 34.7,25.49c0,0.01 0,0.01 -0.01,0.02c-0.73,0.88 -2.57,3.45 -3.12,7.49c-0.02,0.06 -0.03,0.13 -0.03,0.19c-0.01,0.07 -0.01,0.13 -0.01,0.19c-0.02,0.22 -0.03,0.44 -0.03,0.65c0,2.15 0.83,4.17 2.33,5.71c1.5,1.53 3.51,2.37 5.65,2.37c2.101,0 4.08,-0.82 5.57,-2.3c1.53,-1.51 2.399,-3.62 2.399,-5.78c0,-1.89 -0.66,-4.32 -1.739,-6.34c-0.061,-0.13 -0.13,-0.26 -0.2,-0.38c-0.391,-0.69 -0.82,-1.31 -1.28,-1.85c10.22,-10.07 22.01,-18.55 34.62,-25.38c0.181,11.07 0.05,22.13 0.09,33.19c0.12,7.79 -1.82,15.85 -6.479,22.19c4.59,-13.93 -1.421,-28.32 -7.421,-40.81c-1.68,1.03 -3.289,2.19 -4.819,3.44c3.51,7.33 6.76,14.97 7.83,23.09c1.14,12.45 -1.9,26.13 -11.421,34.85c16.311,-6.439 27.881,-23.08 28.21,-40.609c0.1,-15.01 0.03,-30.03 0.03,-45.04zm-44.05,45.17c-0.73,0.73 -1.98,0.73 -2.71,-0.02c-0.39,-0.4 -0.61,-0.93 -0.61,-1.5c0,-0.3 0.06,-0.72 0.17,-1.19c0.16,-0.69 0.44,-1.51 0.83,-2.27l0.14,-0.25c0.33,-0.59 0.63,-0.96 0.84,-1.17c0.2,0.21 0.5,0.57 0.82,1.15l0.09,0.17c0.449,0.82 0.75,1.72 0.92,2.47c0.09,0.43 0.14,0.8 0.14,1.09c0,0.58 -0.22,1.12 -0.63,1.52zm-1.42,-13.76c-5.19,-4.86 -10.47,-9.66 -16.23,-13.87c4.82,-8.31 10.18,-16.32 16.22,-23.8c5.66,7.82 11.06,15.88 15.62,24.39c-5.64,3.88 -10.45,8.84 -15.61,13.28z" id="svg_2"/>
  </g>
  <path fill="url(#SVGID_2_)" d="m53.82435,53.13087c-0.01,0.07 -0.01,0.13 -0.01,0.19l-0.03,0.07c0.01,-0.09 0.02,-0.17 0.04,-0.26z" id="svg_3"/>
 </g>
</svg>