<svg xmlns="http://www.w3.org/2000/svg" xmlns:xlink="http://www.w3.org/1999/xlink" width="36.287" height="38.763" viewBox="0 0 36.287 38.763">
  <defs>
    <linearGradient id="linear-gradient" x1="0.5" x2="0.5" y2="1" gradientUnits="objectBoundingBox">
      <stop offset="0" stop-color="#d1a3ff"/>
      <stop offset="1" stop-color="#631ca9"/>
    </linearGradient>
  </defs>
  <path id="Path_3936" data-name="Path 3936" d="M-458-12.093a10.208,10.208,0,0,0-.781-2.025A10.207,10.207,0,0,0-458-16.144a10.036,10.036,0,0,0-1.009-7.665,10.036,10.036,0,0,0-6.134-4.707,10.205,10.205,0,0,0-2.152-.336,10.054,10.054,0,0,0-8.5-4.648,10.054,10.054,0,0,0-8.5,4.648,10.214,10.214,0,0,0-2.152.336,10.035,10.035,0,0,0-6.134,4.707,10.035,10.035,0,0,0-1.009,7.665,10.21,10.21,0,0,0,.783,2.029,10.045,10.045,0,0,0-.32,8.6.823.823,0,0,0,1.078.433.816.816,0,0,0,.44-.45.817.817,0,0,0-.007-.629,8.476,8.476,0,0,1-.129-6.3,10.04,10.04,0,0,0,2.861,2.459,10.027,10.027,0,0,0,3.768,1.276,9.994,9.994,0,0,0-.782,3.9,10,10,0,0,0,.7,3.708,8.475,8.475,0,0,1-5.4-3.264.817.817,0,0,0-.541-.32.817.817,0,0,0-.609.156.823.823,0,0,0-.164,1.15A10.043,10.043,0,0,0-484.291.612a10.053,10.053,0,0,0,8.5,4.651,10.053,10.053,0,0,0,8.5-4.647,10.208,10.208,0,0,0,2.153-.337,10.036,10.036,0,0,0,6.134-4.707A10.035,10.035,0,0,0-458-12.093Zm-33.156-10.895a8.4,8.4,0,0,1,5.136-3.941c.271-.073.549-.132.829-.178a10,10,0,0,0-.705,3.709,9.993,9.993,0,0,0,.782,3.9,10.03,10.03,0,0,0-3.768,1.276,10.02,10.02,0,0,0-2.86,2.465c-.1-.265-.187-.535-.26-.807h0A8.4,8.4,0,0,1-491.152-22.988Zm15.362-8.869a8.5,8.5,0,0,1,6.541,3.1,10.043,10.043,0,0,0-3.555,1.247,10.027,10.027,0,0,0-2.986,2.621,10.029,10.029,0,0,0-2.986-2.621,10.043,10.043,0,0,0-3.556-1.247A8.5,8.5,0,0,1-475.79-31.857Zm15.114,17.738a8.478,8.478,0,0,1-2.848,2.685,8.419,8.419,0,0,1-2.871,1.028,10,10,0,0,0,.707-3.714,10,10,0,0,0-.707-3.713,8.414,8.414,0,0,1,2.871,1.027A8.481,8.481,0,0,1-460.677-14.119Zm1.093-2.451c-.073.271-.159.54-.258.8a10.043,10.043,0,0,0-2.861-2.46,10.028,10.028,0,0,0-3.768-1.276,9.994,9.994,0,0,0,.782-3.9,10,10,0,0,0-.705-3.708c.281.046.558.106.83.178a8.4,8.4,0,0,1,5.136,3.941A8.4,8.4,0,0,1-459.583-16.569ZM-475.79-21.4q.073.223.133.448a8.359,8.359,0,0,1-.133,4.837,8.359,8.359,0,0,1-.133-4.837h0Q-475.864-21.172-475.79-21.4Zm1.729,8.278a8.532,8.532,0,0,1,4.565,2.637q-.226-.048-.447-.107A8.359,8.359,0,0,1-474.061-13.118Zm0-2a8.359,8.359,0,0,1,4.119-2.53q.221-.059.447-.107A8.53,8.53,0,0,1-474.061-15.119Zm3.693-4.117a10.03,10.03,0,0,0-3.42,1.65,10.029,10.029,0,0,0-.281-3.787,10.243,10.243,0,0,0-.361-1.094,8.487,8.487,0,0,1,5.185,3A10.276,10.276,0,0,0-470.368-19.236Zm-7.151,6.118a8.359,8.359,0,0,1-4.119,2.53q-.221.059-.447.107A8.532,8.532,0,0,1-477.519-13.118Zm0-2a8.531,8.531,0,0,1-4.565-2.637q.226.048.447.107h0A8.358,8.358,0,0,1-477.519-15.119Zm.008-6.254a10.028,10.028,0,0,0-.281,3.787,10.03,10.03,0,0,0-3.42-1.65,10.261,10.261,0,0,0-1.123-.234,8.488,8.488,0,0,1,5.185-3A10.276,10.276,0,0,0-477.511-21.373ZM-481.213-9a10.032,10.032,0,0,0,3.42-1.65,10.027,10.027,0,0,0,.281,3.787,10.268,10.268,0,0,0,.361,1.094,8.487,8.487,0,0,1-5.185-3A10.244,10.244,0,0,0-481.213-9Zm5.422-3.125a8.359,8.359,0,0,1,.133,4.837q-.06.225-.133.448-.073-.223-.133-.448A8.359,8.359,0,0,1-475.79-12.126Zm1.721,5.262a10.029,10.029,0,0,0,.281-3.787A10.031,10.031,0,0,0-470.368-9a10.248,10.248,0,0,0,1.123.234,8.487,8.487,0,0,1-5.185,3A10.278,10.278,0,0,0-474.07-6.864Zm-5.71-7.254a10.079,10.079,0,0,0-3.919,3,8.376,8.376,0,0,1-.551-3,8.376,8.376,0,0,1,.551-3A10.079,10.079,0,0,0-479.78-14.118Zm7.978,0a10.079,10.079,0,0,0,3.919-3,8.376,8.376,0,0,1,.551,3,8.376,8.376,0,0,1-.551,3A10.079,10.079,0,0,0-471.8-14.118Zm3.919-6.278a10.116,10.116,0,0,0-6.426-3.715,8.417,8.417,0,0,1,2.326-1.972,8.479,8.479,0,0,1,3.743-1.123,8.463,8.463,0,0,1,.908,3.808A8.378,8.378,0,0,1-467.883-20.4Zm-15.816,0a8.379,8.379,0,0,1-.551-3,8.461,8.461,0,0,1,.907-3.808,8.477,8.477,0,0,1,3.743,1.123,8.417,8.417,0,0,1,2.326,1.972A10.117,10.117,0,0,0-483.7-20.4Zm-4.358,3.593a8.415,8.415,0,0,1,2.871-1.028,10,10,0,0,0-.707,3.713,10,10,0,0,0,.707,3.714,8.42,8.42,0,0,1-2.871-1.028,8.48,8.48,0,0,1-2.845-2.682A8.485,8.485,0,0,1-488.056-16.8ZM-483.7-7.84a10.117,10.117,0,0,0,6.426,3.715A8.418,8.418,0,0,1-479.6-2.153a8.484,8.484,0,0,1-3.745,1.12,8.463,8.463,0,0,1-.906-3.8A8.377,8.377,0,0,1-483.7-7.84Zm4.922,7.11a10.029,10.029,0,0,0,2.986-2.621A10.027,10.027,0,0,0-472.8-.73,10.039,10.039,0,0,0-469.249.517a8.5,8.5,0,0,1-6.542,3.1A8.5,8.5,0,0,1-482.335.513,10.02,10.02,0,0,0-478.776-.73Zm10.894-7.11a8.377,8.377,0,0,1,.551,3,8.463,8.463,0,0,1-.908,3.808,8.478,8.478,0,0,1-3.743-1.123,8.417,8.417,0,0,1-2.326-1.972A10.116,10.116,0,0,0-467.883-7.84Zm2.194,3a9.995,9.995,0,0,0-.782-3.9A10.027,10.027,0,0,0-462.7-10.01a10.044,10.044,0,0,0,2.861-2.46c.1.263.185.532.258.8a8.4,8.4,0,0,1-.845,6.418,8.4,8.4,0,0,1-5.136,3.941c-.272.073-.55.133-.83.179A10,10,0,0,0-465.689-4.839Z" transform="translate(493.935 33.5)" fill="url(#linear-gradient)"/>
</svg>
