<svg xmlns="http://www.w3.org/2000/svg" width="21" height="20.999" viewBox="0 0 21 20.999">
  <g id="Page-1" transform="translate(0.003)">
    <g id="_003---Call" data-name="003---Call" transform="translate(-0.003)">
      <path id="Shape" d="M9.693,12.342A8.475,8.475,0,0,1,7.134,7.53a.72.72,0,0,1,.207-.6L8.963,5.306a.724.724,0,0,0,.1-.9L6.483.4A.724.724,0,0,0,5.545.136L1.4,2.089a.72.72,0,0,0-.4.719A20.04,20.04,0,0,0,7.1,14.931a20.035,20.035,0,0,0,12.123,6.1.72.72,0,0,0,.719-.4L21.9,16.489a.724.724,0,0,0-.262-.937l-4.01-2.582a.724.724,0,0,0-.9.1l-1.621,1.622a.72.72,0,0,1-.6.207,8.475,8.475,0,0,1-4.812-2.559Z" transform="translate(-0.997 -0.038)" fill="#ddd"/>
      <path id="Shape-2" data-name="Shape" d="M34.879,17.6a.724.724,0,0,1-.724-.724,5.437,5.437,0,0,0-5.431-5.431.724.724,0,0,1,0-1.448A6.887,6.887,0,0,1,35.6,16.879.724.724,0,0,1,34.879,17.6Z" transform="translate(-18.223 -6.379)" fill="#ddd"/>
      <path id="Shape-3" data-name="Shape" d="M38.5,11.224a.724.724,0,0,1-.724-.724,9.062,9.062,0,0,0-9.051-9.051.724.724,0,0,1,0-1.448,10.511,10.511,0,0,1,10.5,10.5.724.724,0,0,1-.724.724Z" transform="translate(-18.223)" fill="#ddd"/>
    </g>
  </g>
</svg>
