<svg xmlns="http://www.w3.org/2000/svg" xmlns:xlink="http://www.w3.org/1999/xlink" width="43.595" height="33.306" viewBox="0 0 43.595 33.306">
  <defs>
    <linearGradient id="linear-gradient" x1="0.5" x2="0.5" y2="1" gradientUnits="objectBoundingBox">
      <stop offset="0" stop-color="#d1a3ff"/>
      <stop offset="1" stop-color="#631ca9"/>
    </linearGradient>
  </defs>
  <g id="open-book" transform="translate(0 -35.048)">
    <g id="Group_2345" data-name="Group 2345" transform="translate(0 35.048)">
      <g id="Group_2344" data-name="Group 2344">
        <path id="Path_3909" data-name="Path 3909" d="M36.389,35.049h0a1.537,1.537,0,0,0-1.093.453,1.553,1.553,0,0,0-.459,1.107V60a1.565,1.565,0,0,0,1.562,1.56c3.631.009,9.715.765,13.912,5.157V42.238a1.5,1.5,0,0,0-.214-.79C46.647,35.9,40.028,35.058,36.389,35.049Z" transform="translate(-29.72 -35.049)" fill="url(#linear-gradient)"/>
        <path id="Path_3910" data-name="Path 3910" d="M172.224,60V36.608a1.557,1.557,0,0,0-1.552-1.56h0c-3.639.009-10.259.851-13.7,6.4a1.5,1.5,0,0,0-.214.79v24.48c4.2-4.392,10.28-5.149,13.912-5.157A1.565,1.565,0,0,0,172.224,60Z" transform="translate(-133.742 -35.048)" fill="url(#linear-gradient)"/>
        <path id="Path_3911" data-name="Path 3911" d="M188.346,71.8h-1.131V91.359a3.991,3.991,0,0,1-3.978,3.982c-3.08.007-8.158.61-11.755,4.014,6.22-1.523,12.778-.533,16.515.319a1.56,1.56,0,0,0,1.909-1.52V73.361A1.561,1.561,0,0,0,188.346,71.8Z" transform="translate(-146.311 -66.406)" fill="url(#linear-gradient)"/>
        <path id="Path_3912" data-name="Path 3912" d="M2.691,91.359V71.8H1.56A1.562,1.562,0,0,0,0,73.361V98.152a1.56,1.56,0,0,0,1.909,1.52c3.737-.852,10.295-1.842,16.515-.319-3.6-3.4-8.675-4.006-11.755-4.013A3.991,3.991,0,0,1,2.691,91.359Z" transform="translate(0 -66.406)" fill="url(#linear-gradient)"/>
      </g>
    </g>
  </g>
</svg>
