<svg xmlns="http://www.w3.org/2000/svg" xmlns:xlink="http://www.w3.org/1999/xlink" width="41.384" height="39.028" viewBox="0 0 41.384 39.028">
  <defs>
    <linearGradient id="linear-gradient" x1="0.5" x2="0.5" y2="1" gradientUnits="objectBoundingBox">
      <stop offset="0" stop-color="#d1a3ff"/>
      <stop offset="1" stop-color="#631ca9"/>
    </linearGradient>
  </defs>
  <g id="Group_2402" data-name="Group 2402" transform="translate(-624.411 403.765)">
    <path id="Path_3937" data-name="Path 3937" d="M654.1-364.737a2.556,2.556,0,0,0-2.028-.817,14.892,14.892,0,0,1-1.918-.347,11.1,11.1,0,0,0-5.058-.06,27.066,27.066,0,0,1-6.689.285,28.345,28.345,0,0,1-8.854-1.437,9.524,9.524,0,0,1-2.1-1.033,1.5,1.5,0,0,1,.01-2.651,8.412,8.412,0,0,1,3.773-1.256,25.923,25.923,0,0,1,6.409-.076.917.917,0,0,0,1.017-.508q.881-1.511,1.842-2.974a5.842,5.842,0,0,0,.893-4.437,9.342,9.342,0,0,0-1.608-3.837c-.056.631-.087,1.264-.173,1.891-.217,1.572-.437,3.143-.7,4.708a3.251,3.251,0,0,1-1.933,2.534,26.041,26.041,0,0,1-7.175,2.661,7.865,7.865,0,0,1-1.427.114,5.071,5.071,0,0,0-2.5.475c-.53.263-.907-.158-1.476-.41.6-.325,1.07-.591,1.552-.839.4-.207.63-.449.41-.947a1.4,1.4,0,0,1-.055-.732.592.592,0,0,1,.812-.558q.9.232,1.792.487a.9.9,0,0,1,.406.207c.654.7,1.215.377,1.86-.064,1.641-1.122,3.313-2.2,4.992-3.265a1.145,1.145,0,0,0,.6-1.014c.048-1.433.1-2.866.174-4.3.067-1.306.1-2.619.262-3.913a3.911,3.911,0,0,1,2.949-3.438,11.24,11.24,0,0,0,2.213-1.063,2.812,2.812,0,0,0,.87-.888,1.191,1.191,0,0,0-.169-1.618,6.424,6.424,0,0,1-.919-6.87,2.2,2.2,0,0,1,.3-.487,19.081,19.081,0,0,0,1.6-1.971c.634-.921,1.825-.7,2.461.317a7.8,7.8,0,0,0,.933,1.18,4.773,4.773,0,0,1,1.262,3.127,6.163,6.163,0,0,1-1.545,4.767,1.121,1.121,0,0,0-.108,1.567,4.966,4.966,0,0,0,1.26,1.134,9.212,9.212,0,0,0,1.77.8,4.3,4.3,0,0,1,3.129,4.421c.066,2.46.2,4.918.348,7.375a1.147,1.147,0,0,0,.451.769c1.888,1.269,3.806,2.5,5.7,3.751a.576.576,0,0,0,.8-.023,2.123,2.123,0,0,1,1.511-.584,1.914,1.914,0,0,0,.79-.3c.764-.351,1.248-.023,1.176.818-.027.318-.244.754-.108.923a3.749,3.749,0,0,0,1.079.723c.255.149.528.268.814.412a1.316,1.316,0,0,1-1.618.4,3.685,3.685,0,0,0-1.372-.358,15.285,15.285,0,0,1-6.975-1.618c-.8-.36-1.581-.773-2.39-1.116a3.448,3.448,0,0,1-2.133-2.906c-.3-2.109-.576-4.223-.864-6.356-.009,0-.114.008-.135.052a14.653,14.653,0,0,0-1.418,3.909,5.727,5.727,0,0,0,.7,4.035c.691,1.123,1.4,2.235,2.078,3.368a.847.847,0,0,0,.932.457,23.52,23.52,0,0,1,7.141.207,10.73,10.73,0,0,1,2.85.985,1.563,1.563,0,0,1-.05,2.975,7.849,7.849,0,0,1-2.949.815c-2.113.127-4.239.051-6.36.058h-.811c.794.563,1.722.822,1.928,1.789C654.384-365.162,654.221-364.986,654.1-364.737Zm-25.92-9.152-1.232-.894a.774.774,0,0,0,.167,1.12C627.485-373.389,627.826-373.488,628.184-373.889Zm35.14-.888-1.208.9c.333.355.664.5,1.035.236A.742.742,0,0,0,663.325-374.777Z" fill="url(#linear-gradient)"/>
  </g>
</svg>
