<?xml version="1.0" standalone="no"?>
<!DOCTYPE svg PUBLIC "-//W3C//DTD SVG 20010904//EN"
 "http://www.w3.org/TR/2001/REC-SVG-20010904/DTD/svg10.dtd">
<svg version="1.0" xmlns="http://www.w3.org/2000/svg"
 width="180" viewBox="0 0 1426.000000 667.000000"
 preserveAspectRatio="xMidYMid meet">

<g transform="translate(0.000000,667.000000) scale(0.100000,-0.100000)"
fill="#8f34eb" stroke="none">
<path d="M11257 6483 c-27 -13 -53 -23 -57 -23 -18 0 -147 -64 -180 -90 -19
-14 -52 -36 -73 -48 -36 -21 -66 -44 -187 -147 -25 -22 -84 -71 -131 -110
-111 -93 -436 -417 -477 -477 -18 -27 -37 -48 -42 -48 -5 0 -25 -24 -43 -53
-34 -52 -87 -116 -87 -104 0 4 -24 -3 -52 -14 -29 -12 -62 -22 -73 -24 -11 -1
-32 -7 -46 -13 -14 -6 -41 -13 -60 -16 -19 -3 -53 -12 -76 -20 -22 -8 -43 -13
-45 -10 -3 2 -30 -5 -61 -15 -30 -11 -57 -17 -59 -15 -3 2 -28 -3 -56 -11 -28
-9 -54 -14 -59 -13 -4 1 -32 -4 -61 -10 -29 -7 -56 -11 -60 -10 -4 1 -33 -4
-64 -10 -132 -27 -170 -34 -174 -29 -3 3 -28 -1 -56 -9 -28 -7 -55 -11 -59 -8
-5 3 -26 0 -48 -6 -35 -9 -75 -15 -188 -25 -23 -2 -50 -6 -60 -9 -10 -3 -47
-8 -83 -12 -36 -3 -78 -8 -95 -9 -75 -8 -218 -22 -320 -30 -38 -3 -95 -8 -125
-10 -30 -3 -89 -7 -130 -10 -242 -15 -236 -15 -220 -2 9 6 26 26 39 42 31 41
119 141 161 184 20 20 48 53 64 74 16 20 44 54 62 73 18 20 38 49 44 65 7 16
16 29 21 29 11 0 12 41 1 56 -4 6 -17 16 -30 23 -20 11 -29 8 -69 -16 -25 -15
-57 -35 -72 -43 -31 -17 -132 -103 -201 -170 -26 -25 -57 -54 -71 -66 -13 -11
-40 -38 -60 -60 -19 -21 -43 -46 -53 -54 -9 -8 -52 -52 -95 -98 -65 -68 -84
-82 -107 -81 -25 1 -93 -5 -279 -27 -22 -2 -64 -6 -93 -9 -29 -2 -56 -6 -61
-9 -5 -3 -31 -8 -57 -11 -27 -2 -71 -7 -97 -10 -26 -2 -66 -9 -89 -15 -22 -6
-42 -9 -45 -7 -2 3 -29 -2 -60 -10 -30 -8 -57 -12 -60 -10 -2 3 -27 -1 -55 -9
-28 -7 -55 -11 -59 -9 -3 3 -32 -4 -63 -15 -31 -10 -56 -17 -56 -15 0 3 -26
-6 -57 -19 -32 -13 -89 -37 -128 -52 -38 -15 -91 -43 -118 -61 -26 -18 -51
-33 -55 -33 -13 0 -82 -61 -82 -72 0 -6 15 1 33 14 17 14 43 29 57 33 14 4 36
15 50 25 40 27 162 81 195 87 16 3 42 11 57 19 15 8 31 13 35 12 4 -1 32 6 61
16 29 10 56 16 59 13 3 -3 16 -1 30 4 26 10 142 30 199 34 17 2 49 6 70 9 22
4 59 9 84 11 25 3 61 7 80 9 143 18 229 29 255 31 17 1 66 5 110 9 44 4 89 9
99 13 16 4 14 -2 -11 -36 -17 -23 -50 -63 -74 -90 -62 -69 -85 -97 -111 -134
-12 -18 -35 -45 -50 -62 -16 -16 -42 -51 -59 -77 -17 -27 -35 -48 -39 -48 -5
0 -23 -23 -40 -52 -18 -28 -38 -58 -46 -65 -8 -8 -19 -24 -25 -36 -7 -11 -16
-26 -20 -31 -42 -53 -59 -77 -79 -113 -13 -24 -27 -43 -31 -43 -4 0 -22 -26
-39 -57 -18 -32 -36 -60 -40 -63 -4 -3 -15 -21 -25 -40 -10 -19 -46 -64 -81
-99 -35 -36 -64 -68 -64 -73 0 -4 -6 -8 -14 -8 -8 0 -33 -25 -57 -55 -24 -30
-49 -54 -55 -55 -6 0 -33 -26 -60 -57 -27 -32 -53 -60 -59 -62 -5 -2 -35 -29
-67 -60 -140 -139 -277 -253 -318 -266 -14 -4 -31 -13 -39 -19 -8 -6 -12 -6
-10 -1 36 80 60 125 67 125 5 0 14 12 21 28 14 29 79 128 108 163 10 11 31 35
46 52 16 18 36 44 45 60 9 15 23 29 32 32 8 3 32 32 54 65 21 33 42 60 47 60
4 0 27 28 50 62 47 68 45 91 -7 96 -22 2 -38 -6 -64 -31 -51 -49 -130 -143
-168 -199 -18 -26 -36 -48 -40 -48 -4 0 -16 -17 -27 -37 -11 -21 -27 -44 -35
-53 -8 -8 -24 -29 -35 -46 -22 -35 -86 -109 -187 -216 -38 -39 -68 -75 -68
-80 0 -4 -6 -8 -14 -8 -8 0 -36 -25 -62 -55 -26 -30 -52 -55 -57 -55 -6 0 -33
-18 -61 -39 -48 -37 -106 -62 -106 -46 0 20 24 85 32 85 5 0 20 27 35 60 14
33 29 60 32 60 4 0 20 25 36 55 17 30 35 55 40 55 6 0 21 21 35 46 13 26 31
53 38 61 18 17 99 124 132 173 14 20 37 50 52 66 67 70 144 179 152 215 5 21
1 28 -20 38 -24 11 -30 6 -127 -95 -160 -167 -487 -494 -495 -494 -4 0 -32
-25 -62 -55 -30 -30 -59 -55 -64 -55 -5 0 -32 -21 -61 -47 -58 -53 -161 -115
-200 -119 -21 -2 -25 1 -25 26 0 16 4 31 9 34 4 3 14 26 21 51 7 24 19 50 27
57 8 6 26 35 40 62 14 28 29 53 33 56 4 3 15 21 25 40 10 18 23 40 29 47 23
25 32 39 55 78 13 22 36 54 51 70 15 17 37 47 49 68 13 20 26 37 31 37 5 0 11
8 14 18 3 9 16 29 28 43 46 53 69 85 96 126 15 24 32 43 37 43 15 0 45 54 45
79 0 13 -9 25 -22 31 -19 7 -28 3 -51 -23 -66 -74 -158 -174 -252 -271 -55
-57 -125 -130 -156 -162 -53 -55 -150 -148 -280 -269 -83 -77 -261 -226 -323
-270 -56 -39 -69 -61 -42 -71 16 -6 66 17 85 40 7 9 17 13 22 10 5 -3 31 15
57 40 27 26 53 46 58 46 9 0 126 97 154 128 9 9 38 37 65 61 28 24 82 74 120
110 103 97 117 109 109 88 -3 -9 -9 -17 -13 -17 -4 0 -22 -27 -41 -60 -19 -33
-37 -60 -40 -60 -4 0 -17 -24 -31 -52 -13 -29 -27 -54 -31 -56 -4 -2 -14 -27
-23 -55 -9 -29 -21 -61 -27 -73 -11 -24 6 -104 26 -116 6 -4 31 -8 56 -8 54 0
141 40 215 99 27 22 52 38 55 36 4 -2 29 18 55 45 27 28 53 50 58 50 5 0 31
25 59 55 27 30 54 55 59 55 5 0 25 17 45 37 40 43 37 33 -16 -47 -103 -154
-141 -232 -148 -302 -6 -68 14 -90 81 -87 30 2 62 11 81 23 17 12 44 28 60 36
33 16 105 78 178 154 33 33 48 43 48 31 0 -9 8 -30 18 -47 15 -27 21 -29 57
-25 63 8 71 11 122 48 26 18 53 36 59 39 20 8 180 148 219 191 19 21 39 39 44
39 5 0 31 25 56 55 26 30 53 55 59 55 6 1 30 25 54 54 23 30 52 56 63 59 15 4
18 2 10 -7 -6 -7 -22 -47 -37 -90 -30 -91 -27 -146 10 -166 19 -10 29 -9 57 5
19 10 42 24 52 33 9 8 17 12 17 8 0 -4 52 45 115 110 63 65 115 112 115 106 0
-7 -4 -12 -8 -12 -5 0 -27 -39 -49 -87 -41 -89 -60 -166 -48 -203 8 -27 53
-49 96 -48 39 1 132 46 196 95 24 18 47 33 51 33 6 0 84 73 250 232 l34 33
-18 -38 c-10 -20 -23 -37 -30 -37 -6 0 -17 -14 -25 -31 -7 -17 -31 -57 -54
-89 -24 -31 -48 -67 -55 -79 -23 -44 -86 -109 -187 -193 -37 -31 -92 -77 -121
-102 -123 -106 -350 -333 -384 -383 -13 -18 -28 -33 -34 -33 -6 0 -24 -19 -41
-42 -17 -24 -48 -61 -69 -83 -22 -23 -63 -72 -92 -110 -29 -39 -64 -83 -77
-100 -13 -16 -30 -38 -37 -48 -12 -16 -33 -19 -163 -23 -447 -14 -832 3 -1205
51 -63 8 -346 56 -400 67 -25 5 -63 12 -85 14 -22 3 -49 9 -60 14 -11 5 -45
14 -75 20 -30 6 -73 15 -95 19 -68 14 -216 52 -299 77 -26 7 -56 14 -65 14 -9
0 -28 7 -43 14 -16 8 -48 18 -73 22 -25 3 -45 10 -45 14 0 5 -19 11 -42 15
-24 4 -56 13 -73 20 -16 7 -48 18 -70 23 -60 16 -135 42 -181 63 -22 11 -46
19 -53 19 -7 0 -31 8 -54 19 -23 10 -57 22 -74 26 -18 3 -33 10 -33 14 0 4
-25 14 -55 21 -30 7 -60 19 -66 26 -5 7 -32 18 -60 25 -27 7 -49 16 -49 19 0
4 -27 15 -60 25 -33 10 -60 21 -60 25 0 3 -25 14 -55 25 -30 10 -55 22 -55 26
0 4 -12 10 -27 14 -17 4 -22 10 -15 12 8 3 24 1 35 -5 126 -59 747 -88 905
-43 17 5 33 7 35 4 5 -5 71 7 167 29 25 6 55 12 67 13 12 2 38 8 57 15 19 6
45 12 58 14 32 3 167 46 202 63 15 8 40 17 55 19 26 5 69 23 171 72 30 14 57
26 60 26 15 2 151 74 184 98 21 15 45 28 52 28 7 0 35 18 63 40 28 22 53 40
56 40 22 0 231 177 324 274 42 43 85 88 97 100 11 11 31 35 43 53 12 18 34 45
49 61 15 16 49 64 76 108 27 43 59 95 71 114 13 19 28 52 35 72 6 21 15 40 20
43 5 3 16 29 26 58 9 28 20 57 24 62 5 6 11 28 15 50 3 22 10 49 15 60 19 47
33 165 33 280 0 67 -3 127 -6 132 -4 6 -9 29 -12 52 -3 23 -11 55 -20 70 -8
16 -16 41 -19 57 -3 16 -19 48 -36 72 -16 23 -30 47 -30 52 0 5 -34 44 -77 86
-79 78 -176 134 -261 150 -20 4 -40 11 -43 16 -6 10 -267 15 -334 6 -57 -7
-142 -27 -195 -46 -25 -9 -52 -17 -60 -18 -33 -4 -140 -51 -265 -117 -11 -6
-45 -23 -75 -39 -30 -16 -71 -41 -90 -56 -19 -15 -52 -35 -72 -46 -20 -10 -47
-29 -59 -42 -12 -13 -27 -24 -32 -24 -5 0 -34 -20 -63 -45 -28 -25 -55 -45
-58 -45 -8 0 -123 -97 -196 -164 -93 -88 -492 -490 -565 -571 -38 -43 -88 -97
-110 -120 -52 -55 -144 -156 -283 -312 -35 -39 -113 -122 -174 -185 -60 -62
-117 -123 -125 -135 -8 -12 -22 -25 -31 -27 -10 -3 -37 -31 -62 -62 -65 -82
-72 -82 -148 -9 -35 35 -63 66 -62 70 1 4 -9 19 -23 33 -50 52 -144 257 -153
332 -17 144 -19 343 -4 348 5 2 10 26 10 52 0 27 4 51 9 54 5 3 12 23 16 43 8
46 57 196 66 203 3 3 14 29 23 58 10 28 21 52 26 52 4 0 17 24 29 53 25 62 75
121 95 114 8 -3 38 1 67 8 29 8 56 12 59 10 4 -3 30 2 58 10 28 9 54 14 59 13
4 -1 26 2 48 6 22 5 51 10 65 11 14 2 68 13 120 25 52 12 107 23 121 25 14 3
39 9 55 15 16 7 46 14 66 16 21 3 55 11 77 19 21 7 41 12 43 9 3 -2 30 5 61
15 30 11 57 17 60 15 2 -3 27 4 55 15 27 11 52 18 54 15 3 -2 20 2 39 10 19 8
50 17 69 20 20 3 53 13 75 22 22 9 50 18 64 21 13 2 36 10 51 18 15 8 38 16
51 19 13 2 44 12 69 21 25 9 52 18 61 20 9 2 39 15 68 29 28 15 51 24 51 22 0
-4 16 1 95 33 11 4 46 20 78 34 31 15 59 27 62 27 5 0 112 51 160 77 17 8 63
33 104 54 41 22 80 44 88 50 7 7 13 9 13 5 0 -4 25 12 55 34 30 22 60 40 68
40 8 0 22 9 33 21 10 11 41 37 69 57 124 89 243 236 280 345 13 40 14 56 3
113 -10 56 -18 73 -49 103 -66 64 -85 78 -125 90 -21 7 -48 16 -59 21 -36 16
-155 31 -238 30 -76 0 -100 -2 -215 -14 -43 -5 -107 -18 -185 -37 -21 -6 -50
-12 -65 -14 -16 -1 -45 -10 -66 -19 -22 -9 -52 -19 -69 -21 -16 -3 -47 -15
-69 -26 -22 -11 -42 -18 -45 -15 -3 3 -29 -6 -59 -19 -30 -13 -54 -22 -54 -19
0 3 -26 -8 -57 -24 -84 -42 -172 -83 -175 -80 -2 1 -31 -17 -64 -39 -34 -23
-64 -40 -66 -37 -3 2 -29 -11 -58 -31 -28 -19 -54 -35 -56 -35 -10 0 -181
-120 -198 -139 -11 -11 -26 -21 -33 -21 -8 0 -43 -27 -77 -60 -35 -33 -66 -60
-71 -60 -17 0 -292 -260 -320 -304 -10 -14 -22 -26 -29 -26 -6 0 -28 -24 -49
-53 -21 -28 -52 -68 -70 -88 -17 -20 -50 -62 -72 -93 -22 -32 -54 -74 -71 -94
-17 -20 -41 -55 -53 -77 -28 -52 -67 -105 -73 -100 -2 3 -22 0 -44 -6 -21 -6
-55 -13 -74 -14 -19 -2 -71 -8 -115 -14 -89 -13 -135 -19 -215 -26 -30 -3 -66
-7 -80 -10 -14 -3 -47 -8 -75 -10 -103 -11 -129 -14 -169 -21 -22 -4 -52 -8
-66 -9 -89 -9 -137 -16 -172 -26 -22 -5 -42 -8 -45 -6 -2 3 -28 -1 -56 -8 -29
-7 -59 -13 -67 -13 -8 1 -38 -6 -67 -15 -28 -8 -54 -14 -57 -11 -3 2 -3 0 2
-6 5 -6 26 -4 57 5 27 9 55 13 62 11 6 -3 29 0 50 6 21 6 54 12 73 13 19 2
103 10 185 19 83 9 175 19 205 22 30 3 69 7 85 9 17 1 59 6 95 9 36 4 72 9 80
11 8 2 44 7 80 11 36 3 76 7 90 9 14 2 54 6 90 9 36 3 80 10 98 15 25 8 32 7
32 -5 0 -8 -4 -14 -8 -14 -5 0 -19 -26 -32 -57 -13 -32 -27 -60 -30 -63 -4 -3
-15 -29 -24 -57 -10 -29 -21 -53 -26 -53 -4 0 -14 -24 -20 -52 -7 -29 -16 -57
-20 -63 -23 -30 -60 -245 -64 -370 -5 -150 25 -318 76 -417 10 -21 16 -38 13
-38 -3 0 12 -26 33 -57 22 -32 46 -71 55 -88 9 -16 47 -63 86 -102 65 -68 83
-98 32 -54 -12 11 -42 28 -67 38 -24 10 -44 21 -44 25 0 8 -156 92 -190 103
-14 4 -32 14 -41 21 -8 8 -38 17 -65 20 -27 4 -52 11 -55 16 -3 5 -71 10 -150
11 -155 2 -196 0 -245 -15 -17 -5 -46 -10 -65 -13 -36 -4 -102 -31 -180 -71
-26 -13 -52 -24 -58 -24 -13 0 -144 -94 -180 -130 -62 -61 -115 -128 -133
-167 -10 -23 -22 -45 -27 -47 -10 -7 -39 -133 -44 -198 -5 -60 14 -172 39
-223 10 -22 19 -42 19 -45 1 -14 67 -99 95 -120 54 -42 113 -70 147 -70 18 0
33 -5 33 -11 0 -6 15 -8 43 -4 23 3 58 7 77 9 46 4 134 29 193 55 26 11 47 18
47 15 0 -2 25 11 55 31 31 19 59 35 63 35 4 0 31 16 61 35 29 19 56 35 60 35
3 0 22 13 41 29 19 15 49 35 66 44 16 8 52 35 80 60 27 24 54 46 61 48 25 8
154 119 387 331 l41 37 30 -19 c16 -11 50 -30 75 -41 25 -12 52 -27 60 -34 8
-6 35 -20 60 -29 25 -10 47 -21 50 -25 6 -9 97 -51 110 -51 5 0 10 -4 10 -8 0
-4 25 -16 55 -27 30 -10 55 -21 55 -25 0 -4 19 -12 43 -19 23 -7 56 -21 72
-31 17 -10 49 -24 73 -31 23 -7 42 -15 42 -19 0 -4 21 -13 48 -19 26 -7 56
-18 67 -25 11 -7 38 -19 60 -26 22 -7 45 -16 50 -20 6 -5 33 -15 60 -24 28 -8
82 -27 120 -41 39 -14 93 -33 120 -42 28 -8 55 -19 60 -23 6 -5 28 -11 50 -15
22 -4 51 -13 65 -20 14 -7 43 -16 65 -20 22 -4 45 -10 50 -15 6 -4 30 -12 55
-18 25 -6 77 -20 115 -32 39 -11 95 -27 125 -35 138 -34 197 -47 225 -52 17
-2 39 -8 50 -13 11 -5 47 -14 80 -20 33 -6 78 -15 100 -20 104 -23 387 -72
445 -76 36 -3 74 -9 85 -14 16 -7 467 -46 555 -49 14 0 174 -1 357 -2 314 -2
331 -3 322 -20 -5 -10 -13 -21 -19 -24 -5 -3 -23 -33 -41 -65 -17 -33 -35 -60
-39 -60 -5 0 -18 -25 -31 -55 -12 -30 -26 -55 -30 -55 -3 0 -13 -15 -20 -32
-7 -18 -25 -53 -40 -78 -15 -25 -32 -62 -39 -83 -6 -20 -15 -37 -19 -37 -4 0
-16 -27 -26 -60 -10 -33 -22 -60 -26 -60 -4 0 -10 -15 -14 -32 -4 -18 -13 -46
-21 -63 -20 -46 -46 -145 -51 -197 -3 -27 -9 -48 -15 -48 -17 0 -3 -138 16
-159 31 -34 73 -32 119 7 53 43 69 60 93 97 10 16 25 36 32 45 15 16 70 96 99
144 10 15 46 71 81 123 34 52 72 114 84 137 11 22 27 45 34 49 8 4 26 31 40
60 15 29 30 54 34 57 4 3 19 29 34 58 14 28 30 52 34 52 4 0 20 24 36 53 16
28 33 54 36 57 4 3 19 28 33 57 15 28 31 54 36 58 6 3 22 28 37 55 15 28 32
50 38 51 6 0 31 2 56 4 72 5 208 17 335 30 22 2 65 7 95 9 30 3 66 8 80 11 14
3 52 8 85 11 102 11 117 12 210 24 50 7 99 12 110 12 11 0 37 5 57 9 20 5 56
11 80 14 24 2 72 9 108 15 36 6 92 15 125 21 33 5 80 12 105 15 25 2 60 9 79
14 19 5 37 7 41 5 4 -3 30 2 58 10 28 9 54 14 59 13 9 -3 111 17 179 34 48 12
106 17 102 9 -2 -4 -11 -27 -22 -53 -10 -26 -22 -46 -26 -43 -4 2 -18 -22 -31
-55 -13 -33 -27 -60 -30 -60 -4 0 -17 -25 -30 -55 -12 -30 -27 -55 -31 -55 -5
0 -20 -25 -34 -56 -14 -31 -31 -62 -38 -70 -8 -7 -22 -34 -31 -59 -10 -25 -22
-45 -26 -45 -5 0 -22 -27 -39 -60 -17 -33 -36 -60 -43 -61 -6 -1 -26 -2 -43
-4 -16 -1 -40 -5 -51 -9 -11 -4 -38 -9 -59 -11 -22 -3 -55 -10 -74 -17 -19 -6
-41 -12 -50 -12 -14 -2 -58 -15 -185 -54 -27 -9 -57 -17 -65 -18 -8 -2 -35
-12 -60 -23 -94 -40 -170 -70 -170 -66 0 10 -277 -138 -315 -170 -24 -19 -46
-35 -50 -35 -14 0 -158 -140 -183 -177 -14 -21 -33 -45 -42 -53 -19 -17 -85
-150 -95 -193 -4 -15 -11 -30 -16 -32 -4 -3 -11 -27 -15 -53 -3 -26 -10 -51
-14 -57 -14 -18 -43 -228 -42 -305 1 -190 28 -296 94 -376 22 -27 58 -58 81
-68 23 -10 52 -23 64 -29 52 -24 215 47 290 125 22 24 51 53 64 64 46 40 191
220 223 276 11 21 26 38 31 38 6 0 23 22 38 50 15 27 33 55 40 62 7 7 25 33
41 58 17 25 35 50 42 55 6 6 23 34 38 63 14 28 31 52 36 52 5 0 23 27 40 60
17 33 34 60 38 60 4 0 18 21 31 48 13 26 30 54 38 62 8 8 28 38 44 65 16 28
47 77 69 110 22 33 51 83 65 110 23 45 77 136 105 175 6 8 29 48 51 88 25 46
49 76 64 82 32 12 148 20 385 25 257 6 354 11 540 30 64 6 182 25 191 31 5 2
23 6 41 8 33 3 95 17 173 39 22 6 45 11 50 11 6 0 33 9 60 19 28 10 61 21 74
23 13 3 36 11 52 19 15 8 37 15 47 15 11 0 44 11 73 24 30 13 58 24 62 24 4 0
32 9 62 21 30 12 80 30 110 42 30 12 57 20 60 20 3 -1 32 12 65 29 33 17 62
30 65 29 11 -2 121 43 178 72 31 17 57 28 57 25 0 -4 22 5 49 19 26 14 58 28
70 30 12 2 44 17 71 34 26 16 50 28 53 25 2 -2 10 2 17 11 20 24 -20 19 -85
-10 -30 -14 -80 -36 -110 -50 -31 -14 -62 -25 -71 -25 -8 0 -37 -11 -64 -25
-28 -14 -50 -23 -50 -20 0 3 -23 -7 -52 -21 -29 -15 -66 -29 -82 -31 -17 -3
-48 -14 -68 -24 -21 -11 -38 -17 -38 -15 0 3 -24 -5 -52 -18 -29 -12 -87 -33
-128 -46 -41 -13 -97 -31 -125 -40 -125 -43 -151 -52 -170 -55 -11 -2 -41 -10
-67 -18 -26 -8 -49 -13 -51 -11 -2 2 -29 -5 -60 -15 -30 -11 -57 -17 -60 -15
-2 3 -17 0 -33 -7 -28 -10 -53 -15 -209 -39 -146 -22 -365 -39 -605 -45 -91
-2 -216 -7 -278 -10 l-112 -5 15 37 c9 20 23 45 31 54 16 18 60 96 95 169 12
25 27 52 35 60 7 9 36 60 63 115 28 55 56 106 62 113 6 7 22 37 35 67 28 61
45 74 105 81 22 3 52 9 66 15 14 5 44 12 66 15 22 2 43 7 47 9 7 5 150 35 190
40 14 2 44 10 67 19 22 8 43 13 46 10 2 -2 24 3 48 11 24 9 55 17 69 19 44 6
174 39 285 72 33 10 63 17 67 16 4 -1 26 5 49 13 23 8 51 17 63 19 12 2 41 10
66 17 25 7 50 13 55 14 12 0 104 28 175 53 25 9 52 16 60 17 8 1 35 8 60 15
25 8 52 15 60 16 8 1 39 11 68 23 28 11 52 19 52 16 0 -3 24 5 53 16 28 12 63
23 76 26 14 2 90 27 170 54 80 28 157 52 171 54 14 2 48 13 75 24 89 35 164
63 170 62 3 0 29 8 57 20 29 11 64 22 77 25 13 3 41 14 62 25 22 11 39 17 39
15 0 -3 21 4 46 14 25 11 55 22 67 24 23 5 101 35 175 67 23 10 82 32 130 48
48 16 107 38 132 49 58 26 158 64 165 63 3 -1 28 10 56 25 29 14 59 27 68 29
25 6 200 76 299 121 29 13 59 24 68 24 8 0 37 11 64 25 28 14 53 26 57 26 5 1
26 10 47 21 21 11 50 22 64 24 13 3 43 14 66 26 22 11 42 20 44 19 1 -1 28 12
60 28 31 15 68 32 82 36 14 4 66 27 115 50 50 24 93 44 98 44 4 0 34 14 67 31
33 17 60 28 60 25 0 -2 26 11 58 30 31 19 63 35 70 35 7 0 34 12 60 27 25 15
51 28 58 29 6 1 29 14 52 28 23 14 47 26 55 26 7 0 21 6 32 14 11 7 46 27 77
44 90 49 102 56 122 72 10 8 20 13 23 11 3 -2 28 14 57 35 28 21 56 39 62 40
17 3 161 119 190 153 32 38 17 47 -29 16 -20 -14 -40 -25 -45 -25 -4 0 -34
-15 -65 -34 -31 -19 -57 -32 -57 -30 0 2 -24 -11 -52 -31 -29 -19 -59 -35 -66
-35 -7 0 -34 -14 -58 -31 -25 -17 -51 -32 -58 -33 -7 -1 -25 -10 -40 -20 -15
-9 -45 -23 -66 -31 -21 -7 -56 -25 -79 -39 -22 -14 -44 -26 -49 -26 -4 0 -33
-13 -65 -30 -31 -16 -57 -27 -57 -25 0 3 -28 -10 -62 -28 -65 -34 -171 -81
-176 -78 -1 1 -28 -11 -60 -27 -53 -28 -197 -90 -302 -132 -25 -10 -79 -32
-120 -50 -41 -18 -92 -38 -113 -46 -22 -8 -56 -23 -78 -34 -21 -11 -45 -20
-54 -20 -9 0 -38 -12 -66 -26 -60 -30 -56 -19 22 62 84 87 178 174 238 219 30
22 83 64 118 93 34 29 63 50 63 46 0 -3 24 15 52 40 29 25 56 46 60 46 5 0 33
20 64 45 30 25 60 45 66 45 5 0 32 18 58 40 26 22 51 40 55 40 4 0 34 18 66
40 32 22 61 40 63 40 2 0 27 16 56 35 29 19 56 35 62 35 5 0 24 11 41 24 18
14 59 39 92 57 110 59 120 65 160 91 22 15 47 28 55 30 8 2 41 20 73 41 31 21
57 35 57 32 0 -4 12 2 28 12 41 27 63 40 108 62 53 27 98 75 91 96 -9 23 -35
29 -65 15 -15 -6 -29 -12 -32 -12 -8 0 -191 -98 -214 -114 -11 -8 -27 -14 -34
-14 -7 0 -33 -13 -57 -30 -24 -16 -48 -30 -54 -30 -6 0 -35 -16 -66 -35 -30
-20 -55 -33 -55 -30 0 3 -26 -11 -57 -32 -32 -21 -71 -45 -88 -53 -16 -8 -45
-25 -62 -38 -18 -14 -33 -21 -33 -17 0 4 -17 -7 -37 -23 -21 -16 -54 -37 -73
-47 -19 -10 -53 -32 -75 -49 -22 -17 -53 -38 -68 -46 -15 -7 -46 -29 -67 -48
-22 -18 -40 -30 -40 -26 0 4 -12 -3 -27 -17 -30 -27 -120 -95 -187 -143 -23
-16 -62 -47 -88 -70 -25 -22 -77 -66 -114 -96 -36 -30 -92 -81 -123 -112 -62
-64 -75 -71 -61 -33 5 13 12 66 16 117 4 51 10 98 14 103 4 6 8 63 8 128 0
108 -2 121 -22 144 -16 18 -28 24 -42 19 -30 -9 -98 -75 -128 -124 -14 -23
-33 -50 -40 -60 -79 -98 -108 -135 -131 -170 -15 -23 -31 -42 -35 -42 -5 0
-28 -27 -52 -60 -23 -33 -50 -62 -59 -65 -9 -3 -35 -28 -58 -55 -23 -28 -51
-50 -61 -50 -10 0 -22 -5 -26 -11 -3 -6 -27 -20 -51 -31 -42 -18 -46 -19 -63
-3 -16 15 -18 27 -13 84 6 71 30 124 81 179 16 17 46 54 68 81 21 28 42 51 46
51 4 0 8 11 8 24 0 25 -32 56 -57 56 -20 0 -107 -92 -134 -141 -13 -24 -27
-46 -30 -49 -3 -3 -13 -18 -22 -35 -8 -16 -35 -51 -59 -76 -24 -25 -72 -79
-108 -119 -123 -137 -215 -220 -245 -220 -21 0 -22 2 -13 57 5 32 12 60 16 63
5 3 16 26 26 53 10 26 24 53 31 60 7 8 25 37 39 65 15 29 30 52 34 52 5 0 19
24 33 53 13 28 28 55 33 59 15 10 0 126 -21 155 -10 14 -23 34 -29 45 -20 35
-52 50 -87 42 -31 -6 -130 -97 -198 -181 -29 -35 -128 -117 -135 -111 -2 3 -4
27 -5 54 -2 51 -22 95 -61 131 -52 48 -208 29 -288 -36 -77 -62 -118 -108
-125 -140 -4 -17 -11 -31 -16 -31 -5 0 -9 -12 -9 -26 0 -28 -28 -94 -40 -94
-4 0 -20 -19 -35 -42 -33 -50 -142 -158 -245 -243 -40 -33 -96 -81 -125 -107
-28 -27 -57 -48 -64 -48 -7 0 -38 -22 -70 -50 -32 -27 -60 -50 -64 -50 -3 0
-28 -13 -54 -28 -67 -40 -129 -54 -148 -35 -17 17 -11 112 11 181 8 23 14 48
14 55 0 7 6 24 14 38 7 15 21 50 31 78 9 28 20 51 24 51 4 0 15 23 25 50 10
28 22 53 28 56 5 3 20 31 34 62 14 31 32 60 40 65 8 4 25 29 38 55 22 43 86
116 86 98 0 -4 26 6 58 23 31 16 68 33 82 37 14 4 42 18 63 31 20 13 37 21 37
17 0 -3 23 10 50 30 28 20 55 36 62 36 6 0 36 19 67 42 31 24 67 49 80 55 25
14 29 17 196 154 150 123 339 319 362 375 10 24 21 44 26 44 13 0 7 75 -9 98
-24 35 -96 30 -186 -13 -39 -19 -79 -41 -87 -48 -9 -7 -28 -19 -44 -27 -15 -7
-50 -33 -78 -57 -28 -24 -55 -43 -61 -43 -6 0 -37 -24 -68 -52 -32 -29 -90
-80 -129 -113 -111 -92 -301 -285 -355 -358 -16 -23 -39 -51 -51 -63 -12 -12
-32 -38 -44 -58 -13 -20 -26 -36 -30 -36 -4 0 -12 -9 -17 -21 -6 -13 -33 -28
-79 -43 -114 -38 -180 -56 -202 -56 -11 0 -39 -7 -62 -15 -58 -20 -90 -5 -58
27 7 7 39 63 72 123 32 61 64 116 71 122 7 7 20 33 29 58 10 25 21 45 25 45 4
0 17 24 30 53 12 28 28 57 35 62 6 6 24 33 39 60 43 81 97 169 105 175 5 3 20
28 35 55 38 71 97 168 113 184 8 7 23 32 35 55 11 22 26 44 33 48 7 5 25 29
40 55 32 54 79 103 100 103 8 0 39 11 70 24 30 14 55 23 55 21 0 -3 25 6 55
20 30 13 55 22 55 19 0 -2 27 9 60 26 33 17 62 30 65 29 3 0 26 9 50 21 25 12
51 23 57 24 7 1 37 15 67 31 30 17 57 30 60 30 3 1 31 14 61 30 30 16 60 30
67 31 6 1 31 15 55 32 24 16 54 33 68 37 14 4 44 21 68 37 23 16 42 26 42 23
0 -4 17 6 38 22 20 16 53 37 73 46 19 9 56 34 81 57 25 22 51 40 57 40 5 0 34
24 63 54 29 29 61 57 71 63 29 15 116 145 123 183 4 19 11 40 16 47 17 21 -12
135 -42 165 -53 53 -182 62 -273 21z m173 -43 c0 -5 8 -10 18 -10 34 -1 76
-95 55 -123 -5 -7 -15 -31 -22 -55 -9 -32 -31 -62 -85 -115 -98 -96 -193 -178
-208 -181 -7 -1 -35 -18 -63 -39 -27 -21 -54 -38 -60 -38 -5 0 -17 -6 -25 -12
-18 -14 -54 -35 -95 -55 -16 -9 -49 -28 -72 -44 -23 -15 -48 -28 -55 -28 -8 0
-35 -13 -61 -30 -26 -16 -52 -30 -58 -30 -5 0 -27 -11 -49 -25 -22 -14 -48
-26 -58 -28 -17 -2 -59 -22 -183 -84 -26 -13 -54 -23 -63 -23 -9 0 -34 -9 -55
-20 -22 -11 -56 -26 -78 -33 -21 -8 -47 -18 -57 -22 -15 -7 -13 1 13 38 17 25
37 50 44 54 7 4 25 26 42 48 16 22 47 59 70 82 22 23 65 68 96 100 74 77 257
247 344 319 39 33 96 81 127 108 31 26 65 53 76 60 11 6 36 24 55 39 20 16 42
30 50 31 7 1 36 16 64 34 27 18 55 32 62 32 7 0 26 7 42 16 17 8 44 17 62 20
18 3 50 9 72 13 56 12 55 12 55 1z m-7090 -55 c30 -4 57 -11 60 -15 3 -3 25
-14 50 -23 25 -9 64 -34 86 -55 34 -30 44 -48 53 -94 8 -37 9 -63 2 -75 -5
-10 -17 -39 -26 -65 -9 -27 -20 -48 -25 -48 -5 0 -12 -10 -16 -22 -18 -57
-338 -327 -394 -333 -3 0 -25 -14 -50 -31 -25 -17 -85 -50 -135 -74 -49 -24
-107 -54 -127 -67 -21 -13 -45 -23 -54 -23 -9 0 -37 -11 -63 -24 -64 -33 -259
-114 -293 -121 -9 -2 -38 -13 -64 -24 -26 -12 -53 -21 -61 -21 -8 0 -28 -7
-44 -16 -17 -8 -42 -17 -58 -19 -15 -1 -45 -11 -66 -20 -22 -9 -47 -18 -55
-19 -14 -2 -52 -13 -178 -53 -23 -7 -51 -13 -62 -13 -11 0 -41 -9 -69 -19 -27
-11 -51 -18 -53 -15 -3 2 -25 -3 -49 -11 -24 -9 -55 -17 -69 -19 -14 -2 -43
-8 -65 -14 -42 -11 -153 -36 -170 -37 -18 -2 -129 -26 -170 -37 -22 -6 -55
-12 -72 -14 -18 -1 -48 -8 -68 -14 -19 -6 -38 -9 -43 -6 -5 3 -33 -1 -63 -9
-39 -10 -56 -11 -64 -3 -7 7 -6 12 2 15 7 2 26 28 43 56 17 29 50 77 73 108
23 31 57 76 75 100 35 48 104 127 167 193 22 24 56 60 76 82 46 50 137 134
225 206 154 128 192 158 201 158 5 0 27 15 49 34 35 30 73 55 179 118 11 7 38
24 60 39 22 14 55 31 73 37 18 6 45 20 60 30 32 22 182 93 182 86 0 -2 27 9
60 26 33 17 60 28 60 25 0 -2 25 7 57 20 31 14 58 23 61 21 2 -3 27 4 56 16
28 11 62 21 76 23 14 2 44 10 67 19 22 8 43 12 46 10 2 -3 17 0 33 6 16 6 52
14 79 16 28 3 65 8 84 12 46 10 262 8 331 -3z m515 -945 c47 -13 85 -27 85
-31 0 -4 26 -22 58 -39 37 -21 75 -54 110 -96 51 -63 122 -203 122 -242 0 -12
5 -33 10 -48 14 -35 15 -271 2 -287 -5 -6 -12 -34 -15 -62 -5 -54 -35 -167
-46 -175 -4 -3 -15 -31 -24 -62 -10 -32 -21 -58 -26 -58 -4 0 -18 -25 -30 -55
-13 -30 -26 -55 -30 -55 -4 0 -20 -27 -36 -60 -16 -33 -33 -60 -39 -60 -6 0
-21 -18 -33 -39 -13 -22 -42 -61 -65 -88 -61 -69 -318 -323 -328 -323 -4 0
-40 -25 -79 -55 -39 -30 -75 -55 -79 -55 -5 0 -33 -17 -63 -38 -30 -21 -76
-49 -104 -63 -27 -14 -59 -30 -70 -36 -109 -58 -222 -108 -267 -118 -9 -2 -29
-10 -45 -18 -28 -14 -159 -56 -199 -63 -12 -2 -39 -10 -62 -18 -22 -8 -42 -12
-45 -10 -2 3 -17 -1 -33 -7 -29 -11 -71 -19 -209 -39 -248 -37 -594 -37 -780
0 -27 6 -68 13 -90 16 -22 3 -54 12 -72 20 -17 8 -39 14 -50 14 -10 0 -30 6
-44 14 -14 7 -38 16 -54 20 -43 11 -156 66 -187 92 -15 12 -33 24 -39 26 -15
5 27 65 50 73 9 3 36 30 60 60 24 30 50 55 57 55 8 0 14 4 14 9 0 4 33 42 72
83 40 42 103 109 141 149 37 41 86 95 110 120 23 25 62 70 87 98 25 29 65 74
90 100 25 27 74 81 110 121 36 40 85 94 110 119 25 26 57 60 71 76 14 17 33
37 42 45 9 8 86 85 170 170 218 219 427 408 447 403 4 -1 24 16 45 38 22 21
43 39 49 39 5 0 42 25 81 55 40 30 78 55 85 55 7 0 33 15 59 33 25 17 52 33
60 35 8 2 26 12 41 22 14 10 39 22 56 26 16 4 53 20 82 36 28 17 52 27 52 24
0 -3 21 4 47 15 25 11 62 22 82 25 20 3 39 8 42 10 4 2 26 6 50 9 24 3 60 9
79 13 66 15 225 5 315 -18z m3040 -14 c-10 -14 -22 -26 -29 -26 -6 0 -26 -23
-45 -51 -19 -27 -45 -59 -58 -69 -14 -11 -37 -36 -52 -57 -15 -21 -65 -77
-112 -124 -77 -80 -87 -87 -116 -82 -28 5 -31 7 -20 24 6 10 15 19 19 19 3 0
21 16 40 36 33 36 163 166 248 249 50 48 133 114 138 110 2 -2 -4 -15 -13 -29z
m1998 -181 c-13 -25 -30 -48 -38 -52 -7 -5 -22 -27 -33 -49 -12 -23 -28 -48
-36 -56 -7 -8 -23 -33 -35 -55 -11 -23 -27 -47 -35 -55 -7 -8 -26 -39 -41 -69
-15 -30 -31 -56 -34 -59 -4 -3 -20 -27 -36 -55 -15 -27 -31 -52 -35 -55 -4 -3
-20 -30 -35 -60 -15 -30 -31 -57 -36 -60 -9 -6 -57 -93 -94 -170 -14 -30 -30
-57 -34 -60 -5 -3 -21 -29 -37 -59 -45 -84 -86 -155 -117 -200 l-27 -41 -79 0
c-44 0 -91 4 -105 10 -16 6 -26 6 -26 0 0 -18 48 -41 111 -52 35 -6 65 -12 67
-14 6 -4 -33 -80 -55 -107 -13 -16 -23 -34 -23 -41 0 -7 -10 -28 -23 -47 -12
-19 -31 -54 -42 -79 -11 -25 -23 -47 -26 -50 -8 -6 -76 -136 -210 -400 -46
-91 -89 -172 -95 -180 -6 -8 -19 -35 -28 -60 -10 -25 -21 -47 -24 -50 -4 -3
-32 -54 -62 -115 -30 -60 -57 -112 -61 -115 -3 -3 -14 -26 -23 -52 -17 -42
-22 -47 -65 -58 -25 -6 -62 -14 -80 -16 -19 -2 -51 -8 -70 -14 -63 -16 -156
-34 -164 -32 -5 1 -25 -2 -45 -8 -21 -5 -53 -12 -72 -14 -19 -3 -54 -9 -77
-14 -23 -5 -44 -8 -47 -5 -2 2 -28 -3 -56 -11 -29 -9 -56 -14 -60 -11 -3 2
-31 -2 -60 -10 -29 -8 -56 -12 -60 -10 -4 2 -22 0 -41 -5 -19 -5 -52 -12 -74
-14 -22 -2 -78 -9 -125 -16 -47 -7 -98 -14 -115 -15 -16 -2 -68 -8 -115 -15
-47 -7 -98 -13 -115 -15 -16 -2 -73 -8 -125 -15 -88 -10 -126 -15 -220 -25
-19 -2 -73 -6 -120 -10 -47 -4 -88 -9 -92 -12 -5 -2 -8 1 -8 6 0 6 4 11 8 11
5 0 19 22 31 49 13 27 34 60 46 73 13 14 31 40 40 59 10 19 21 36 25 39 4 3
20 30 35 60 15 30 32 58 37 61 11 7 66 94 102 159 13 25 35 58 49 74 14 16 33
47 43 68 9 21 20 38 24 38 4 0 13 14 20 30 7 17 16 30 21 30 4 0 11 9 14 20 3
11 12 26 18 32 7 7 25 35 41 61 34 60 131 164 160 173 11 4 42 26 68 50 26 24
52 44 57 44 6 0 35 20 65 45 31 25 58 45 61 45 8 0 66 41 98 69 15 14 27 21
27 17 0 -4 17 5 38 21 20 16 51 35 67 43 17 8 50 29 75 46 25 17 63 39 85 49
22 9 47 24 57 32 9 8 22 15 30 17 7 1 20 6 28 11 8 5 26 15 40 24 14 8 -21
-31 -78 -87 -57 -56 -106 -102 -110 -102 -4 -1 -28 -29 -55 -63 -26 -34 -68
-87 -92 -117 -25 -30 -57 -77 -71 -105 -15 -27 -30 -52 -34 -55 -11 -7 -30
-80 -30 -116 0 -18 10 -42 24 -59 23 -26 28 -28 78 -22 36 5 67 17 96 37 23
16 48 30 55 30 7 0 37 25 67 55 30 30 58 55 63 55 9 0 151 143 196 198 l31 37
-1 -80 c-1 -57 4 -92 16 -120 10 -22 19 -44 19 -49 1 -4 19 -18 41 -30 22 -11
42 -24 46 -28 9 -13 152 -19 185 -8 17 6 40 12 50 14 10 3 42 15 69 27 28 13
53 23 57 24 4 0 31 21 60 46 29 25 61 48 71 52 23 9 22 27 -3 27 -23 0 -65
-17 -102 -43 -16 -10 -28 -16 -28 -12 0 3 -21 -6 -46 -21 -25 -15 -56 -28 -67
-29 -12 -2 -41 -8 -64 -14 -39 -11 -85 -6 -154 14 -31 10 -57 76 -54 140 2 66
32 195 45 195 4 0 18 25 30 55 12 30 26 55 31 55 15 0 40 60 34 81 -4 11 -17
25 -30 31 -28 12 -69 -11 -90 -51 -7 -14 -26 -40 -41 -57 -16 -16 -57 -64 -92
-105 -34 -41 -92 -105 -127 -143 -36 -38 -65 -73 -65 -78 0 -4 -6 -8 -13 -8
-7 0 -35 -25 -61 -55 -26 -30 -52 -55 -57 -55 -6 0 -32 -19 -59 -42 -26 -23
-54 -43 -62 -44 -7 -2 -23 -6 -35 -10 -18 -5 -23 -2 -23 13 0 19 45 113 59
123 4 3 17 22 30 43 12 20 26 37 29 37 4 0 20 20 36 45 15 25 36 51 47 58 10
7 37 37 59 65 23 29 46 52 50 52 5 0 32 25 61 55 28 30 57 55 63 55 7 0 34 22
61 50 27 27 51 48 53 45 3 -2 30 15 61 39 31 24 61 45 66 47 39 16 85 57 85
76 0 45 -53 48 -145 9 -22 -10 -52 -19 -66 -21 -41 -6 -379 -175 -419 -209 -8
-8 -26 -17 -39 -21 -13 -4 -51 -27 -84 -51 -32 -24 -63 -44 -67 -44 -5 0 -29
-16 -54 -35 -25 -19 -46 -32 -46 -28 0 4 -12 -4 -27 -18 -16 -14 -48 -38 -73
-54 -25 -16 -57 -40 -72 -54 -16 -14 -28 -21 -28 -17 0 11 40 75 63 102 25 29
79 108 114 166 15 27 33 48 38 48 6 0 19 17 30 37 11 20 40 62 65 94 25 31 63
83 85 115 22 32 50 68 62 81 12 13 35 44 50 71 15 26 30 49 33 52 27 21 6 80
-29 80 -22 0 -88 -62 -130 -123 -18 -27 -39 -51 -46 -53 -7 -3 -27 -26 -46
-52 -18 -26 -49 -63 -68 -82 -20 -20 -57 -60 -83 -90 -70 -82 -240 -259 -350
-366 -118 -115 -282 -226 -317 -217 -18 4 -18 8 -4 61 8 32 20 62 27 67 7 6
23 30 35 54 22 43 96 151 124 181 7 8 28 36 46 63 17 26 36 47 40 47 5 0 23
21 40 48 17 26 46 63 63 83 18 20 56 65 83 99 28 34 63 76 78 92 38 40 35 87
-7 101 -31 10 -48 -3 -155 -117 -20 -21 -72 -75 -116 -121 -68 -70 -135 -142
-285 -304 -134 -146 -270 -274 -270 -256 0 4 6 21 14 38 8 18 20 50 26 72 7
22 16 45 20 50 5 6 33 57 63 115 49 93 70 121 179 232 68 69 177 183 243 254
66 71 143 152 171 181 28 28 61 68 75 87 13 20 29 36 36 36 6 0 31 27 55 60
23 33 50 62 58 65 8 3 27 21 41 39 14 19 60 73 103 120 68 74 83 86 110 84 17
0 74 2 126 6 52 4 102 8 110 8 8 0 114 8 235 18 121 10 227 18 235 18 38 1
167 13 180 17 8 2 44 7 80 11 97 9 114 11 157 19 40 6 60 9 163 20 30 3 70 10
89 15 19 5 38 7 42 5 4 -3 29 -1 56 4 26 5 82 14 123 21 41 6 98 17 125 23 28
6 54 10 59 9 4 -2 22 2 40 8 17 5 45 12 61 14 17 2 49 9 72 15 23 6 45 10 50
9 7 -3 43 7 177 49 27 8 61 17 75 20 14 2 28 6 30 9 2 2 8 4 12 4 4 0 -4 -20
-18 -45z m947 -180 c0 -14 -4 -25 -9 -25 -5 0 -11 -10 -15 -23 -9 -38 -189
-229 -276 -294 -19 -15 -53 -43 -75 -64 -51 -47 -230 -181 -278 -208 -19 -11
-55 -34 -78 -50 -23 -17 -48 -31 -56 -31 -8 0 -34 -13 -58 -30 -24 -16 -49
-30 -56 -30 -6 0 -28 -10 -47 -22 l-35 -22 19 34 c10 18 33 47 49 64 17 17 47
51 67 76 110 137 396 399 543 498 22 15 60 43 83 61 24 19 49 36 57 37 7 1 33
14 57 28 24 14 58 26 76 26 28 0 32 -3 32 -25z m-3370 -110 c0 -2 -10 -15 -22
-28 -86 -90 -150 -161 -164 -182 -9 -14 -21 -25 -28 -25 -6 0 -20 -14 -32 -30
-39 -56 -371 -405 -356 -375 6 11 21 31 34 46 13 14 38 48 57 77 18 29 39 56
45 60 7 4 27 29 46 56 18 27 40 57 49 66 35 38 107 125 133 160 14 21 35 44
45 51 11 8 36 37 57 64 30 40 45 51 74 56 54 9 62 10 62 4z m4776 -587 c-2
-57 -8 -139 -15 -183 -11 -73 -19 -112 -54 -258 -9 -38 -8 -53 2 -69 11 -17
10 -22 -1 -29 -7 -5 -15 -9 -18 -10 -3 0 -14 -2 -25 -4 -11 -2 -42 -14 -70
-26 -124 -53 -164 -69 -215 -85 -30 -10 -56 -16 -58 -16 -1 1 -29 -11 -62 -28
-33 -17 -60 -28 -60 -26 0 3 -19 -4 -42 -14 -24 -10 -55 -21 -69 -23 -14 -3
-45 -15 -69 -27 -24 -12 -54 -24 -68 -26 -13 -3 -39 -12 -56 -21 -17 -9 -51
-22 -76 -29 -71 -20 -154 -51 -189 -68 -17 -9 -31 -14 -31 -11 0 2 -24 -5 -52
-16 -29 -12 -62 -22 -73 -23 -11 -2 -34 -10 -51 -19 -17 -9 -42 -18 -55 -20
-14 -3 -42 -13 -64 -22 -22 -10 -49 -19 -60 -20 -11 -2 -40 -11 -65 -20 -25
-9 -54 -18 -65 -20 -23 -4 -97 -29 -167 -57 -26 -10 -55 -18 -66 -18 -11 0
-37 -7 -58 -16 -21 -9 -48 -17 -59 -19 -11 -1 -38 -9 -60 -17 -69 -25 -139
-47 -172 -52 -17 -4 -52 -15 -76 -25 -25 -11 -47 -17 -50 -15 -2 3 -28 -4 -56
-16 -28 -11 -55 -19 -59 -18 -4 1 -32 -6 -62 -14 -30 -9 -84 -24 -120 -34 -36
-9 -87 -24 -115 -32 -27 -9 -53 -15 -57 -14 -4 1 -26 -5 -50 -14 -23 -8 -59
-17 -79 -19 -20 -3 -52 -11 -71 -20 -20 -8 -38 -12 -40 -10 -3 3 -30 -4 -61
-14 -30 -11 -57 -17 -60 -15 -2 2 -29 -5 -60 -15 -30 -11 -57 -18 -59 -16 -2
3 -26 -2 -52 -10 -27 -8 -52 -13 -56 -10 -4 3 -33 -4 -63 -14 -30 -11 -57 -17
-59 -15 -3 2 -28 -3 -57 -12 -29 -8 -55 -13 -57 -11 -5 5 17 59 27 67 4 3 17
30 30 60 12 30 26 57 29 60 4 3 17 28 30 55 13 28 27 52 31 55 4 3 17 30 29
60 12 30 25 57 29 60 4 3 13 21 21 40 7 19 21 47 31 61 10 14 25 45 35 70 9
24 22 51 29 59 7 8 20 35 29 59 10 25 23 50 30 55 7 6 21 31 30 56 10 25 23
52 30 60 7 8 21 35 31 60 11 25 23 47 27 50 4 3 32 53 61 110 30 58 65 121 79
141 14 21 30 51 37 68 11 24 21 32 50 36 20 3 61 11 91 17 30 7 58 11 62 10 3
-1 30 6 60 15 29 9 60 17 68 18 8 1 25 5 38 9 12 4 22 5 22 1 0 -10 -42 -90
-50 -95 -10 -6 -66 -104 -86 -150 -8 -19 -26 -58 -39 -85 -14 -28 -25 -57 -25
-65 0 -9 -6 -24 -14 -35 -18 -27 -36 -103 -48 -209 l-9 -89 30 -41 c29 -41 30
-41 88 -38 38 1 77 12 113 29 69 33 203 124 250 169 20 19 41 34 47 34 6 0 33
19 59 43 113 98 157 124 119 70 -8 -11 -17 -40 -21 -64 -4 -24 -11 -49 -16
-55 -13 -17 -7 -145 8 -175 7 -15 28 -39 46 -54 30 -26 36 -27 97 -21 59 6 72
12 148 69 46 33 83 64 83 67 0 4 22 29 48 56 26 27 63 72 82 99 18 28 39 53
46 57 7 5 24 29 40 55 15 27 31 50 35 53 5 3 19 31 33 62 14 31 29 59 35 62 5
4 13 21 16 39 14 64 44 113 85 141 22 14 82 70 133 123 50 53 112 116 136 140
42 40 46 41 63 26 10 -9 16 -18 14 -20 -2 -3 2 -16 9 -30 13 -25 5 -80 -13
-92 -5 -3 -19 -26 -32 -51 -12 -25 -32 -56 -44 -70 -30 -33 -80 -125 -96 -175
-7 -22 -16 -45 -21 -50 -4 -6 -11 -44 -14 -85 -7 -70 -6 -76 17 -97 44 -41
102 -32 176 26 52 40 206 193 226 222 18 29 59 47 49 23 -9 -23 17 -83 45
-102 15 -11 39 -22 53 -25 42 -10 135 27 198 80 67 56 185 176 214 218 11 17
34 44 50 60 16 17 41 47 54 68 14 20 28 37 32 37 3 0 19 23 36 50 16 28 32 50
37 50 4 0 21 20 38 45 17 25 33 45 36 45 2 0 2 -46 0 -102z m-1537 -123 c11
-11 16 -37 16 -96 0 -78 -1 -82 -30 -105 -58 -47 -209 -79 -276 -58 -32 9 -16
50 50 130 49 60 59 71 68 87 5 9 24 28 43 42 27 20 42 24 74 20 22 -2 47 -11
55 -20z m-330 -330 c30 -20 49 -25 92 -24 47 1 133 21 193 45 17 6 18 4 12
-21 -4 -16 -16 -40 -27 -53 -10 -14 -19 -30 -19 -36 0 -6 -13 -27 -28 -46 -16
-19 -41 -56 -56 -83 -16 -26 -36 -53 -45 -60 -9 -6 -28 -28 -41 -47 -42 -62
-210 -217 -210 -194 0 3 -10 -2 -22 -10 -26 -19 -84 -21 -94 -5 -20 34 3 192
41 274 8 17 21 48 30 70 9 21 19 42 23 45 4 3 20 31 37 63 16 31 32 57 36 57
3 0 11 11 17 25 14 31 14 31 61 0z m-9099 -401 c30 -3 60 -10 65 -14 6 -4 27
-10 48 -14 35 -6 165 -70 177 -87 3 -3 21 -14 40 -24 53 -26 149 -89 149 -97
1 -13 -61 -78 -74 -78 -8 0 -35 -25 -60 -55 -26 -30 -53 -55 -59 -55 -6 0 -38
-27 -71 -60 -33 -33 -64 -60 -70 -60 -7 0 -40 -25 -75 -55 -35 -30 -69 -55
-76 -55 -6 0 -17 -7 -24 -15 -14 -17 -129 -95 -140 -95 -4 0 -13 -7 -20 -15
-6 -8 -15 -13 -18 -12 -4 1 -29 -13 -55 -32 -27 -18 -54 -34 -60 -35 -7 -1
-34 -12 -62 -25 -27 -12 -57 -24 -65 -26 -8 -2 -37 -12 -65 -23 -57 -21 -156
-23 -221 -4 -41 12 -106 63 -127 99 -40 68 -47 83 -51 109 -3 16 -10 43 -15
59 -9 34 1 171 18 223 12 40 98 173 119 186 8 5 41 33 74 62 32 30 62 54 68
54 6 0 27 13 49 28 63 46 248 110 344 118 29 3 53 6 54 7 4 5 149 -2 203 -9z
m5571 -382 c-5 -10 -17 -25 -26 -32 -9 -8 -28 -36 -42 -64 -14 -27 -31 -56
-39 -64 -8 -7 -14 -17 -14 -22 0 -5 -6 -15 -12 -22 -22 -24 -55 -73 -82 -123
-25 -45 -81 -132 -105 -161 -5 -6 -21 -35 -36 -63 -14 -28 -33 -60 -43 -70 -9
-10 -32 -43 -51 -74 -28 -46 -39 -56 -60 -55 -14 1 -68 -2 -119 -6 -107 -8
-106 -13 -22 89 28 33 64 78 80 100 88 116 550 585 577 585 2 0 -1 -8 -6 -18z
m-561 -869 c0 -7 -42 -77 -50 -83 -4 -3 -20 -27 -35 -55 -16 -27 -32 -52 -36
-55 -3 -3 -16 -25 -29 -50 -12 -25 -32 -55 -43 -68 -21 -23 -52 -73 -103 -167
-14 -27 -30 -51 -35 -53 -5 -2 -23 -29 -41 -60 -17 -31 -35 -59 -38 -62 -4 -3
-19 -29 -35 -57 -15 -29 -32 -53 -36 -53 -5 0 -22 -27 -39 -59 -16 -33 -33
-61 -37 -63 -4 -1 -21 -23 -38 -48 -16 -25 -37 -54 -47 -65 -9 -11 -28 -33
-42 -50 l-24 -30 -7 28 c-4 16 -3 38 3 50 6 12 14 45 17 72 4 28 10 55 15 60
4 6 11 28 15 50 4 22 10 45 15 50 4 6 15 34 24 64 9 29 19 59 24 65 5 6 16 32
26 59 10 26 22 47 27 47 5 0 9 6 9 13 0 19 100 217 109 217 5 0 16 19 26 43
13 34 80 143 118 192 4 6 16 22 27 37 18 24 29 27 83 30 118 6 177 6 177 1z
m1666 -475 c4 -6 0 -16 -9 -23 -9 -7 -28 -36 -42 -66 -33 -68 -75 -142 -96
-166 -9 -10 -29 -40 -44 -68 -14 -27 -37 -68 -51 -90 -13 -22 -27 -48 -30 -57
-4 -10 -10 -18 -14 -18 -4 0 -20 -24 -35 -52 -16 -29 -31 -55 -35 -58 -4 -3
-19 -27 -35 -55 -16 -27 -36 -59 -46 -70 -9 -11 -26 -39 -38 -62 -12 -24 -25
-43 -29 -43 -4 0 -22 -26 -40 -57 -18 -32 -50 -83 -72 -113 -22 -30 -52 -75
-67 -99 -16 -24 -40 -56 -54 -71 -14 -14 -38 -48 -54 -73 -15 -26 -30 -47 -34
-47 -4 0 -14 -13 -24 -29 -38 -65 -243 -271 -270 -271 -4 0 -20 -6 -37 -15
-16 -8 -40 -15 -54 -15 -45 0 -112 37 -147 81 -19 24 -33 44 -32 46 1 1 -6 23
-17 47 -10 25 -19 53 -19 63 -1 10 -3 56 -7 103 -7 106 10 260 46 400 15 60
71 200 80 200 4 0 16 19 26 42 10 24 40 65 66 93 26 27 48 53 48 57 0 9 177
148 188 148 5 0 37 18 71 40 34 22 65 40 70 40 4 0 33 13 64 29 31 16 57 27
57 25 0 -2 23 7 51 22 29 14 59 27 68 29 9 2 40 13 69 24 28 10 52 17 52 15 0
-2 25 8 57 21 31 14 58 23 61 21 2 -3 21 1 40 10 35 14 148 41 207 49 17 2 44
8 60 14 41 13 43 13 51 -1z"/>
<path d="M408 4703 c7 -3 16 -2 19 1 4 3 -2 6 -13 5 -11 0 -14 -3 -6 -6z"/>
</g>
</svg>
