<svg xmlns="http://www.w3.org/2000/svg" viewBox="0 0 11.637 9.451"><path d="M10.441,5.736c.007.1.007.207.007.31a6.739,6.739,0,0,1-6.786,6.786A6.74,6.74,0,0,1,0,11.761a4.934,4.934,0,0,0,.576.03,4.776,4.776,0,0,0,2.961-1.019,2.389,2.389,0,0,1-2.23-1.654,3.008,3.008,0,0,0,.45.037,2.522,2.522,0,0,0,.628-.081A2.385,2.385,0,0,1,.473,6.733V6.7a2.4,2.4,0,0,0,1.078.3,2.389,2.389,0,0,1-.738-3.19,6.779,6.779,0,0,0,4.918,2.5,2.692,2.692,0,0,1-.059-.546A2.387,2.387,0,0,1,9.8,4.134a4.7,4.7,0,0,0,1.514-.576,2.379,2.379,0,0,1-1.049,1.314A4.781,4.781,0,0,0,11.637,4.5a5.127,5.127,0,0,1-1.2,1.233Z" transform="translate(0 -3.381)"/></svg>