<svg xmlns="http://www.w3.org/2000/svg" xmlns:xlink="http://www.w3.org/1999/xlink" width="41.059" height="34.302" viewBox="0 0 41.059 34.302">
  <defs>
    <linearGradient id="linear-gradient" x1="0.5" x2="0.5" y2="1" gradientUnits="objectBoundingBox">
      <stop offset="0" stop-color="#d1a3ff"/>
      <stop offset="1" stop-color="#631ca9"/>
    </linearGradient>
  </defs>
  <path id="Path_3915" data-name="Path 3915" d="M1462.325,354.909h-18.836v0q-9.455,0-18.91,0c-1.222,0-1.616.4-1.616,1.626q0,15.5,0,31c0,1.274.385,1.665,1.661,1.665q18.873.006,37.745.006c1.261,0,1.652-.4,1.652-1.677q0-15.465,0-30.931C1464.021,355.274,1463.656,354.91,1462.325,354.909Zm-11.11,2.45h3.969v2.052c-1.21,0-2.4.013-3.583-.018a.556.556,0,0,1-.369-.391C1451.188,358.474,1451.215,357.94,1451.215,357.359Zm-6.383-.006h3.911v2.012h-3.911Zm-12.9-.039c1.241,0,2.45-.01,3.659.017.11,0,.3.243.307.383.036.529.015,1.061.015,1.646h-3.98Zm-3.311,29.471c-.9-.052-1.8-.021-2.706,0-.412.009-.539-.151-.556-.557-.065-1.538-.079-1.537,1.467-1.537h.585c.293,0,.585,0,.878,0,1.339.011,1.149-.144,1.2,1.232C1429.5,386.6,1429.292,386.824,1428.616,386.785Zm-.791-27.375c-.658,0-1.319.034-1.973-.016a.669.669,0,0,1-.47-.436c-.2-1.65-.186-1.651,1.463-1.651h2.484a1.4,1.4,0,0,1,.111.244C1429.663,359.417,1429.663,359.416,1427.825,359.41Zm6.639,27.368c-.657.014-1.315-.014-1.971.007-.425.014-.616-.118-.607-.578.036-1.866-.2-1.469,1.41-1.515.219-.006.438,0,.657,0,.463,0,.926.022,1.387-.005s.592.17.585.6C1435.9,387.08,1436.074,386.742,1434.464,386.778Zm3.9-29.415h3.922v1.994h-3.922Zm.029,10.957a1.67,1.67,0,0,1,1.83-1.842,4.9,4.9,0,0,1,.83.327q3.3,1.894,6.575,3.822a1.536,1.536,0,0,1,0,2.841q-3.211,1.9-6.445,3.756c-1.576.9-2.792.207-2.8-1.588Q1438.382,371.978,1438.4,368.32Zm3.927,18.389H1438.4v-1.961h3.919Zm6.423.024h-3.89v-1.981h3.89Zm6.463-.357a.612.612,0,0,1-.45.384c-1.023.035-2.048.039-3.07,0a.674.674,0,0,1-.449-.466c-.183-1.586-.17-1.588,1.447-1.59h2.543A16.539,16.539,0,0,1,1455.209,386.376Zm6.365.387c-1.211,0-2.376.011-3.541-.016-.126,0-.251-.221-.367-.349-.026-.028-.008-.095-.013-.143-.158-1.571-.158-1.569,1.443-1.559.8,0,1.6,0,2.478,0Zm-1.427-27.346c-.659,0-1.318-.011-1.977,0-.368.008-.507-.133-.531-.511-.1-1.586-.114-1.586,1.432-1.6.2,0,.391,0,.586,0,.488,0,.977.016,1.464-.006.389-.017.49.154.509.52C1461.715,359.416,1461.726,359.416,1460.147,359.416Z" transform="translate(-1422.963 -354.905)" fill="url(#linear-gradient)"/>
</svg>
