<?xml version="1.0" standalone="no"?>
<!DOCTYPE svg PUBLIC "-//W3C//DTD SVG 20010904//EN"
 "http://www.w3.org/TR/2001/REC-SVG-20010904/DTD/svg10.dtd">
<svg version="1.0" xmlns="http://www.w3.org/2000/svg"
 width="700.000000pt" height="700.000000pt" viewBox="0 0 700.000000 700.000000"
 preserveAspectRatio="xMidYMid meet">
<metadata>
Created by potrace 1.11, written by Peter Selinger 2001-2013
</metadata>
<g transform="translate(0.000000,700.000000) scale(0.100000,-0.100000)"
fill="#000000" stroke="none">
<path d="M3686 6792 c-27 -31 -66 -76 -87 -99 -31 -33 -278 -330 -307 -368 -4
-5 -37 -48 -73 -95 -218 -284 -594 -840 -955 -1412 l-23 -36 -243 162 c-234
155 -543 350 -658 413 -30 16 -78 44 -106 61 -28 18 -53 32 -56 32 -3 0 -43
22 -89 48 -129 74 -520 265 -527 257 -10 -10 -9 -3254 1 -3350 4 -44 10 -91
11 -105 10 -75 17 -118 21 -140 3 -14 8 -41 11 -60 3 -19 17 -80 30 -135 14
-55 27 -107 29 -115 23 -108 135 -391 225 -570 257 -506 628 -922 1112 -1248
46 -32 48 -32 172 -32 69 0 126 3 126 6 0 4 -12 21 -28 38 -200 234 -377 619
-471 1021 -16 72 -32 146 -35 165 -3 19 -8 44 -10 55 -2 12 -7 48 -11 80 -4
33 -9 69 -11 79 -25 136 -23 689 2 820 2 11 6 42 9 70 3 28 7 62 9 76 3 14 14
79 26 145 47 269 131 531 334 1040 53 132 96 246 96 253 0 17 -65 74 -194 169
l-111 82 -54 -107 c-60 -121 -176 -382 -228 -517 -31 -79 -127 -358 -139 -403
-67 -252 -111 -446 -128 -567 -3 -22 -10 -71 -15 -110 -40 -288 -29 -750 24
-979 8 -34 17 -77 20 -96 3 -19 10 -48 17 -63 22 -56 -2 -37 -52 39 -115 180
-270 544 -304 719 -3 11 -11 49 -20 85 -8 36 -18 85 -21 110 -4 24 -8 47 -10
50 -1 3 -6 36 -10 73 -3 37 -9 78 -12 90 -9 35 -10 2648 -1 2653 5 3 31 -8 58
-25 28 -17 52 -31 54 -31 10 0 420 -244 566 -338 334 -214 667 -451 955 -681
66 -52 122 -98 125 -101 3 -3 46 -39 95 -80 144 -120 319 -277 468 -421 l100
-95 -41 -60 c-86 -125 -141 -262 -171 -424 -14 -78 -5 -233 17 -294 53 -146
156 -263 287 -327 90 -43 157 -59 249 -59 238 0 461 173 530 412 55 188 -9
469 -157 690 l-44 67 109 103 c149 140 216 202 342 313 167 148 502 412 756
596 214 156 622 422 825 539 17 10 84 49 150 87 222 128 233 133 239 118 8
-21 1 -2602 -7 -2665 -50 -378 -128 -643 -274 -925 -42 -81 -149 -255 -158
-255 -2 0 3 21 11 48 22 70 50 197 63 277 6 39 13 86 17 105 13 74 12 456 -2
570 -57 490 -215 986 -524 1645 -23 50 -53 114 -67 143 l-24 53 -37 -22 c-50
-30 -153 -103 -232 -163 -36 -27 -66 -51 -68 -52 -1 -1 32 -75 74 -165 170
-367 282 -656 363 -939 16 -58 32 -116 35 -130 3 -14 12 -52 20 -85 13 -54 36
-180 50 -277 18 -121 24 -423 12 -608 -23 -355 -95 -681 -215 -984 -73 -183
-200 -411 -312 -558 l-58 -78 123 0 123 0 60 39 c248 160 475 362 703 627 14
16 60 74 102 129 266 350 475 797 568 1214 18 83 23 107 35 181 3 19 7 46 10
60 2 14 7 54 10 90 4 36 9 83 11 105 6 47 13 3297 7 3307 -10 18 -399 -170
-668 -322 -93 -53 -443 -269 -725 -447 -161 -102 -252 -158 -300 -185 -19 -11
-39 -24 -45 -29 -5 -5 -12 -9 -16 -9 -6 0 -74 111 -113 185 -6 11 -72 121
-146 243 -74 123 -139 231 -145 240 -37 64 -379 577 -480 720 -30 42 -59 84
-65 92 -85 122 -178 250 -270 375 -20 28 -67 92 -105 143 -37 50 -72 92 -79
91 -6 0 -33 -26 -60 -57z m136 -733 c381 -537 667 -982 906 -1410 45 -80 82
-149 82 -155 0 -5 -24 -25 -52 -44 -60 -40 -238 -180 -318 -248 -48 -42 -318
-280 -346 -307 -76 -70 -264 -239 -341 -306 l-30 -27 -54 50 c-412 382 -667
603 -908 788 -69 52 -135 104 -149 115 l-24 21 107 179 c196 327 442 704 611
935 104 142 283 382 318 426 23 28 52 65 65 83 14 17 29 30 35 28 6 -2 50 -59
98 -128z m-53 -3068 c81 -126 115 -285 77 -359 -32 -62 -125 -89 -183 -53 -76
48 -88 124 -44 263 34 102 87 198 112 198 4 0 21 -22 38 -49z"/>
</g>
</svg>
